<svg xmlns="http://www.w3.org/2000/svg" viewBox="0 0 300 300" id="el_-efNEmgwV"><style>@-webkit-keyframes kf_el_hHkqNtFMdh_an_vQwOjZjSxO{88.89%{opacity: 0;}91.67%{opacity: 1;}0%{opacity: 0;}100%{opacity: 1;}}@keyframes kf_el_hHkqNtFMdh_an_vQwOjZjSxO{88.89%{opacity: 0;}91.67%{opacity: 1;}0%{opacity: 0;}100%{opacity: 1;}}@-webkit-keyframes kf_el_hHkqNtFMdh_an_yEjTrhTWc{91.67%{-webkit-transform: translate(127.48033142089844px, 243.8404769897461px) scale(1, 1) translate(-127.48033142089844px, -243.8404769897461px);transform: translate(127.48033142089844px, 243.8404769897461px) scale(1, 1) translate(-127.48033142089844px, -243.8404769897461px);}94.44%{-webkit-transform: translate(127.48033142089844px, 243.8404769897461px) scale(1.1, 1.1) translate(-127.48033142089844px, -243.8404769897461px);transform: translate(127.48033142089844px, 243.8404769897461px) scale(1.1, 1.1) translate(-127.48033142089844px, -243.8404769897461px);}97.22%{-webkit-transform: translate(127.48033142089844px, 243.8404769897461px) scale(1, 1) translate(-127.48033142089844px, -243.8404769897461px);transform: translate(127.48033142089844px, 243.8404769897461px) scale(1, 1) translate(-127.48033142089844px, -243.8404769897461px);}0%{-webkit-transform: translate(127.48033142089844px, 243.8404769897461px) scale(1, 1) translate(-127.48033142089844px, -243.8404769897461px);transform: translate(127.48033142089844px, 243.8404769897461px) scale(1, 1) translate(-127.48033142089844px, -243.8404769897461px);}100%{-webkit-transform: translate(127.48033142089844px, 243.8404769897461px) scale(1, 1) translate(-127.48033142089844px, -243.8404769897461px);transform: translate(127.48033142089844px, 243.8404769897461px) scale(1, 1) translate(-127.48033142089844px, -243.8404769897461px);}}@keyframes kf_el_hHkqNtFMdh_an_yEjTrhTWc{91.67%{-webkit-transform: translate(127.48033142089844px, 243.8404769897461px) scale(1, 1) translate(-127.48033142089844px, -243.8404769897461px);transform: translate(127.48033142089844px, 243.8404769897461px) scale(1, 1) translate(-127.48033142089844px, -243.8404769897461px);}94.44%{-webkit-transform: translate(127.48033142089844px, 243.8404769897461px) scale(1.1, 1.1) translate(-127.48033142089844px, -243.8404769897461px);transform: translate(127.48033142089844px, 243.8404769897461px) scale(1.1, 1.1) translate(-127.48033142089844px, -243.8404769897461px);}97.22%{-webkit-transform: translate(127.48033142089844px, 243.8404769897461px) scale(1, 1) translate(-127.48033142089844px, -243.8404769897461px);transform: translate(127.48033142089844px, 243.8404769897461px) scale(1, 1) translate(-127.48033142089844px, -243.8404769897461px);}0%{-webkit-transform: translate(127.48033142089844px, 243.8404769897461px) scale(1, 1) translate(-127.48033142089844px, -243.8404769897461px);transform: translate(127.48033142089844px, 243.8404769897461px) scale(1, 1) translate(-127.48033142089844px, -243.8404769897461px);}100%{-webkit-transform: translate(127.48033142089844px, 243.8404769897461px) scale(1, 1) translate(-127.48033142089844px, -243.8404769897461px);transform: translate(127.48033142089844px, 243.8404769897461px) scale(1, 1) translate(-127.48033142089844px, -243.8404769897461px);}}@-webkit-keyframes kf_el_T6V4VGcKKi_an_N1Z3sVCQq{75%{opacity: 0;}83.33%{opacity: 1;}0%{opacity: 0;}100%{opacity: 1;}}@keyframes kf_el_T6V4VGcKKi_an_N1Z3sVCQq{75%{opacity: 0;}83.33%{opacity: 1;}0%{opacity: 0;}100%{opacity: 1;}}@-webkit-keyframes kf_el_4LgUcnDBDL_an_KdZbPnIp5{66.67%{opacity: 0;}75%{opacity: 1;}0%{opacity: 0;}100%{opacity: 1;}}@keyframes kf_el_4LgUcnDBDL_an_KdZbPnIp5{66.67%{opacity: 0;}75%{opacity: 1;}0%{opacity: 0;}100%{opacity: 1;}}@-webkit-keyframes kf_el_fxzbanzn96_an_lxE2YUQYm{83.33%{opacity: 0;}91.67%{opacity: 1;}0%{opacity: 0;}100%{opacity: 1;}}@keyframes kf_el_fxzbanzn96_an_lxE2YUQYm{83.33%{opacity: 0;}91.67%{opacity: 1;}0%{opacity: 0;}100%{opacity: 1;}}#el_-efNEmgwV *{-webkit-animation-duration: 6s;animation-duration: 6s;-webkit-animation-iteration-count: 1;animation-iteration-count: 1;-webkit-animation-timing-function: cubic-bezier(0, 0, 1, 1);animation-timing-function: cubic-bezier(0, 0, 1, 1);}#el_JKaclGDjMW{fill: #4f4f4f;}#el_boB6z7UGJw{fill: #e7503d;}#el_C8M_Tr94bU{fill: #e7503d;}#el_fC4R8uut9A{fill: #fff;}#el_qzz06koNuw{fill: #fff;}#el_sLDLOdBfJg{fill: #fff;}#el_fxzbanzn96{fill: #61afbb;-webkit-animation-fill-mode: forwards;animation-fill-mode: forwards;-webkit-animation-name: kf_el_fxzbanzn96_an_lxE2YUQYm;animation-name: kf_el_fxzbanzn96_an_lxE2YUQYm;-webkit-animation-timing-function: cubic-bezier(0, 0, 1, 1);animation-timing-function: cubic-bezier(0, 0, 1, 1);}#el_4LgUcnDBDL{fill: #61afbb;-webkit-animation-fill-mode: forwards;animation-fill-mode: forwards;-webkit-animation-name: kf_el_4LgUcnDBDL_an_KdZbPnIp5;animation-name: kf_el_4LgUcnDBDL_an_KdZbPnIp5;-webkit-animation-timing-function: cubic-bezier(0, 0, 1, 1);animation-timing-function: cubic-bezier(0, 0, 1, 1);}#el_T6V4VGcKKi{fill: #61afbb;-webkit-animation-fill-mode: forwards;animation-fill-mode: forwards;-webkit-animation-name: kf_el_T6V4VGcKKi_an_N1Z3sVCQq;animation-name: kf_el_T6V4VGcKKi_an_N1Z3sVCQq;-webkit-animation-timing-function: cubic-bezier(0, 0, 1, 1);animation-timing-function: cubic-bezier(0, 0, 1, 1);}#el_hHkqNtFMdh{fill: #b5b5b5;-webkit-animation-fill-mode: forwards;animation-fill-mode: forwards;-webkit-animation-name: kf_el_hHkqNtFMdh_an_vQwOjZjSxO;animation-name: kf_el_hHkqNtFMdh_an_vQwOjZjSxO;-webkit-animation-timing-function: cubic-bezier(0, 0, 1, 1);animation-timing-function: cubic-bezier(0, 0, 1, 1);}#el_hHkqNtFMdh_an_yEjTrhTWc{-webkit-animation-fill-mode: forwards;animation-fill-mode: forwards;-webkit-animation-name: kf_el_hHkqNtFMdh_an_yEjTrhTWc;animation-name: kf_el_hHkqNtFMdh_an_yEjTrhTWc;-webkit-animation-timing-function: cubic-bezier(0, 0, 1, 1);animation-timing-function: cubic-bezier(0, 0, 1, 1);}#el_RifNKvxL3M{visibility: hidden;}</style><title>Experience_Managment_031419</title><g id="el_-wOcG6t2lT"><polygon id="el_boB6z7UGJw" data-name="Connector 2" points="190.254 152.486 186.801 146.605 186.04 145.308 184.742 146.07 127.947 178.148 126.649 178.91 127.411 180.207 130.863 186.088 131.625 187.385 132.922 186.624 189.718 154.545 191.015 153.784 190.254 152.486"/><polygon id="el_C8M_Tr94bU" data-name="Connector 1" points="181.297 115.137 182.505 116.033 183.402 114.825 187.465 109.349 188.361 108.141 187.153 107.244 136.695 69.612 135.486 68.715 134.59 69.924 130.527 75.4 129.631 76.608 130.839 77.504 181.297 115.137"/><path id="el_fC4R8uut9A" data-name="Ring 1" d="M128.43,88.1208q.31-.3581.6132-.7241.3683-.444.7211-.8975.16-.2058.3171-.4135.4674-.6165.9075-1.2491c.0181-.0259.0377-.05.0556-.0765.0157-.0227.0294-.0461.045-.0688a37.95,37.95,0,0,0,2.7926-38.3068c-.1455-.3-.3023-.5949-.4558-.8914-.0811-.1541-.1575-.311-.2407-.4639a37.9039,37.9039,0,0,0-25.35-19.1431c-.3095-.0682-.6239-.1222-.9361-.1828-.269-.0515-.537-.1107-.8066-.1563a37.9963,37.9963,0,0,0-24.8508,4.2192c-.192.1058-.3818.2158-.5722.325q-.3511.203-.6976.4128A37.8709,37.8709,0,0,0,68.3838,41.36c-.5489.79-1.052,1.5974-1.5331,2.4128-.0671.1136-.1346.2271-.2006.3414q-.3291.5715-.6362,1.15-.1635.3072-.3219.6174-.2377.4683-.4621.9405-.2118.4462-.4124.8986c-.1009.2286-.2008.4572-.2969.6869q-.2536.6041-.4867,1.2185c-.0473.125-.0957.25-.1416.375q-.2867.78-.54,1.5747c-.0084.0266-.0178.0531-.0262.08a38.1008,38.1008,0,0,0,2.3251,28.6077l.0009.0017q.35.6907.727,1.3648c.1073.1936.2172.3858.328.5778q.2252.3873.4589.7689a38.0559,38.0559,0,0,0,31.462,18.2318c.0552.0015.1105.0025.1657.0038.7527.0163,1.5074.0182,2.2657-.01l0-.0064a37.797,37.797,0,0,0,14.4613-3.41c.0686-.0312.1379-.0612.2063-.0928q.641-.2985,1.2712-.6227,1.5409-.7837,3-1.7062l.0082-.0051a37.7859,37.7859,0,0,0,6.8873-5.572l.0031.003c.0445-.0453.0854-.0932.13-.1388q.4706-.4866.9253-.9908Q128.1943,88.3925,128.43,88.1208Zm-10.0354-.0543-.0069-.0091a31.5392,31.5392,0,0,1-2.87,1.921c-.2873.1692-.5761.3361-.8689.496-.1281.07-.2575.1383-.3864.2068a31.29,31.29,0,0,1-8.7545,3.0646l.001.0055a31.3984,31.3984,0,0,1-4.746.5226c-.5.018-.9977.02-1.4946.0143-.1218-.0015-.2433-.0014-.3652-.0044-.4466-.01-.8913-.0324-1.3349-.0615-.1412-.0091-.2822-.0172-.4236-.0281-.5173-.041-1.0328-.0917-1.5453-.1582l-.0447-.0054A31.6888,31.6888,0,0,1,75.8505,83.3271a29.874,29.874,0,0,1-3.4074-4.7147,30.2045,30.2045,0,0,1-2.6282-6.32A31.302,31.302,0,0,1,85.016,35.5989c.11-.0587.2206-.1183.3317-.1756.08-.0417.1611-.0817.2416-.1226A31.4086,31.4086,0,0,1,100.845,31.96c.055.0021.11.0048.1647.0071.4569.0188.9138.0491,1.37.088.168.0147.3359.0292.5031.0466.212.0215.424.0435.6358.0695q.5568.0693,1.1081.1575c.1149.0183.23.0382.3444.0579a31.4025,31.4025,0,0,1,21.77,15.2832c.0117.0207.0247.0407.0364.0614.0491.0859.0933.1748.1416.2612a31.2787,31.2787,0,0,1-.9492,31.8863,31.7191,31.7191,0,0,1-2.4775,3.352c-.494.5836-1.0029,1.1572-1.5429,1.7087l.0023.0022A30.9949,30.9949,0,0,1,118.3948,88.0665Z"/><path id="el_qzz06koNuw" data-name="Ring 2" d="M258.853,158.783q.3727-.43.7361-.8692.4419-.5329.8655-1.0773.1917-.2469.3806-.4964.561-.74,1.0894-1.4992c.0216-.0312.0452-.0607.0667-.0919.0188-.0272.0353-.0554.054-.0826a45.5529,45.5529,0,0,0,3.352-45.9812c-.1745-.36-.3628-.7142-.547-1.07-.0974-.185-.1891-.3733-.2889-.5568A45.4988,45.4988,0,0,0,234.1328,84.08c-.3715-.0819-.7489-.1466-1.1237-.2194-.3228-.0619-.6446-.1329-.9682-.1876a45.6056,45.6056,0,0,0-29.8294,5.0645c-.2305.1269-.4584.259-.6869.39q-.4215.2436-.8374.4954a45.46,45.46,0,0,0-13.91,13.0309c-.6589.948-1.2628,1.9175-1.84,2.8962-.0806.1364-.1615.2726-.2408.41q-.3951.6858-.7636,1.38-.1963.3687-.3864.741-.2855.5622-.5547,1.1289-.2544.5357-.495,1.0787c-.1212.2743-.2411.5487-.3565.8246q-.3043.7249-.5842,1.4625c-.0567.15-.1148.3-.17.45q-.3438.9357-.6476,1.89c-.01.032-.0214.0638-.0315.0959a45.7332,45.7332,0,0,0,2.791,34.3389l.001.0021q.42.8292.8727,1.6382c.1288.2324.2607.4631.3937.6936q.27.4649.5509.9229a45.6792,45.6792,0,0,0,37.7651,21.8844c.0662.0018.1326.003.1989.0046.9035.0195,1.8094.0219,2.72-.0116l0-.0078a45.3712,45.3712,0,0,0,17.3586-4.0935c.0824-.0376.1655-.0735.2476-.1115q.77-.3584,1.5259-.7474,1.85-.9408,3.6012-2.0481l.01-.0061a45.3507,45.3507,0,0,0,8.2671-6.6883l.0037.0036c.0534-.0544.1026-.1119.1556-.1665q.5649-.5842,1.1107-1.1894Q258.57,159.1092,258.853,158.783Zm-12.046-.0652-.0082-.011a37.8626,37.8626,0,0,1-3.4448,2.306c-.3449.2031-.6914.4034-1.043.5953-.1537.0846-.309.1659-.4638.2482a37.5562,37.5562,0,0,1-10.5083,3.6786l.0012.0066a37.7034,37.7034,0,0,1-5.6969.6273c-.6.0215-1.1976.0238-1.794.0172-.1462-.0019-.292-.0017-.4384-.0053-.536-.0121-1.07-.0389-1.6023-.0738-.1695-.011-.3388-.0207-.5085-.0338-.6209-.0491-1.24-.11-1.8548-.19l-.0537-.0065a38.038,38.038,0,0,1-23.6522-12.8479,35.8674,35.8674,0,0,1-4.09-5.6592,36.27,36.27,0,0,1-3.1548-7.5865,37.5731,37.5731,0,0,1,18.2466-44.0445c.1326-.07.2648-.142.3981-.2108.0962-.05.1934-.0981.29-.1472a37.7013,37.7013,0,0,1,18.3121-4.01c.0659.0024.1317.0057.1976.0085.5485.0225,1.0969.0589,1.6449.1056.2016.0176.4032.0351.604.0559.2544.0258.5089.0523.7631.0834q.6684.0833,1.33.1891c.138.0219.2757.0459.4134.0695a37.6943,37.6943,0,0,1,26.1311,18.3451c.0141.0248.03.0488.0437.0737.059.1031.1119.21.17.3135A37.5452,37.5452,0,0,1,255.9,148.8894a38.09,38.09,0,0,1-2.9738,4.0236c-.593.7-1.2038,1.389-1.852,2.0509l.0027.0027A37.2,37.2,0,0,1,246.807,158.7178Z"/><path id="el_sLDLOdBfJg" data-name="Ring 3" d="M106.7566,244.1416V233.6893c-.3249.19-.65.3793-.9807.56-.1718.0945-.3454.1854-.5184.2774a41.9809,41.9809,0,0,1-11.7452,4.1116l.0014.0073a42.1323,42.1323,0,0,1-6.3674.7012c-.6706.024-1.3386.0266-2.0052.0191-.1634-.002-.3264-.0019-.49-.0058-.5991-.0136-1.1958-.0436-1.791-.0825-.1894-.0123-.3786-.0231-.5683-.0378-.6939-.0549-1.3856-.123-2.0731-.2122l-.06-.0072a42.5149,42.5149,0,0,1-26.436-14.36,40.0681,40.0681,0,0,1-4.5714-6.3253,40.53,40.53,0,0,1-3.5262-8.4794,41.9958,41.9958,0,0,1,20.3943-49.2287c.1482-.0788.2959-.1587.445-.2356.1075-.0559.2162-.11.3241-.1645a42.139,42.139,0,0,1,20.4675-4.4822c.0738.0028.1473.0064.2209.01.6131.0253,1.226.0659,1.8386.1181.2253.02.4507.0392.675.0625.2844.0288.5688.0584.8529.0932q.7471.093,1.4868.2113c.1541.0245.3081.0514.462.0777A42.1312,42.1312,0,0,1,121.999,176.821c.0156.0278.0331.0546.0487.0824.066.1152.1252.2345.19.35a41.9815,41.9815,0,0,1-.7834,41.9825l6.7273,6.7274a50.8892,50.8892,0,0,0,3.398-50.8668c-.1952-.4025-.4057-.7982-.6115-1.196-.1088-.2068-.2113-.4172-.3229-.6224a50.8531,50.8531,0,0,0-34.01-25.6828c-.4152-.0916-.837-.164-1.2559-.2453-.3608-.0691-.72-.1485-1.0822-.21a50.9749,50.9749,0,0,0-33.34,5.6606c-.2576.1419-.5123.29-.7677.436q-.471.2722-.9359.5538a50.81,50.81,0,0,0-15.5478,14.5647c-.7365,1.06-1.4114,2.1431-2.0568,3.2371-.09.1524-.1806.3047-.2692.4581q-.4416.7665-.8536,1.5427-.2193.4122-.4318.8283-.319.6284-.62,1.2618-.2843.5986-.5533,1.2057c-.1354.3066-.2694.6132-.3984.9215q-.34.81-.6529,1.6347c-.0635.1678-.1284.335-.19.5032q-.3844,1.0458-.7238,2.1125c-.0114.0358-.024.0714-.0352.1072A51.1155,51.1155,0,0,0,40.04,220.5494l.0011.0023q.4692.9267.9754,1.831c.144.26.2915.5177.44.7752q.3021.52.6157,1.0316a51.0565,51.0565,0,0,0,42.21,24.46c.0741.0021.1482.0035.2223.0052,1.01.0218,2.0224.0244,3.04-.013l0-.0087A50.7115,50.7115,0,0,0,106.7566,244.1416Z"/><path id="el_fxzbanzn96" data-name="Customer 3" d="M101.1918,212.9715a2.8224,2.8224,0,0,1-1.6989-2.6221V206.42a16.9914,16.9914,0,0,0,3.7358-7.73,4.5524,4.5524,0,0,0,.9281-.1327,5.0845,5.0845,0,0,0,3.6236-5.0042v-1.1475a5.3248,5.3248,0,0,0-1.2919-3.487c1.2934-7.6038.1621-13.829-3.2764-18.0139-3.369-4.1-8.7651-6.0626-15.6294-5.6693a19.7819,19.7819,0,0,0-11.6491,4.4939c-1.8155.2865-6.94,1.768-6.94,9.2871a41.5043,41.5043,0,0,0,.9829,8.9638,5.1894,5.1894,0,0,0-2.3806,4.4425v1.13a5.0856,5.0856,0,0,0,3.6241,5.0042,4.5469,4.5469,0,0,0,.9271.1322,17,17,0,0,0,3.7358,7.7307v3.9287a2.8229,2.8229,0,0,1-1.6985,2.6226l-10.7157,4.3441a11.2466,11.2466,0,0,0-5.7453,5.3451,23.0153,23.0153,0,0,0,3.0953,2.75l1.124-2.1711a7.2271,7.2271,0,0,1,2.9243-2.196l7.7306-3.1339a17.43,17.43,0,0,0,5.283,7.1253,15.7255,15.7255,0,0,0,19.7089-.0744,17.1859,17.1859,0,0,0,5.1913-7.05l5.5155,2.2352.2292-.3252a7.5749,7.5749,0,0,1,2.24-2.1064l.8453-.5192ZM75.8523,197.5406a3.3964,3.3964,0,0,0-3.25-2.8592c-.0769,0-.1548.003-.2327.0088a.7714.7714,0,0,1-.2517-.0235,1.138,1.138,0,0,1-.6739-1.1132v-1.13a1.0824,1.0824,0,0,1,.7028-1.0789.8318.8318,0,0,1,.8507.3467,2.5248,2.5248,0,0,0,1.2748.9355,2.4469,2.4469,0,0,0,2.195-.37,12.0632,12.0632,0,0,0,3.7907-5.4347,2.0251,2.0251,0,0,0-1.2337-2.5095,1.8489,1.8489,0,0,0-1.4487.1058,1.962,1.962,0,0,0-.9829,1.1862,8.0524,8.0524,0,0,1-1.5628,2.6265,4.64,4.64,0,0,0-1.18-.6318,37.5208,37.5208,0,0,1-1.0079-8.5818c0-2.2637.6431-3.84,1.91-4.6855a4.2879,4.2879,0,0,1,1.9889-.6787,1.8754,1.8754,0,0,0,1.3409-.5667,15.9006,15.9006,0,0,1,9.7117-3.8558c5.61-.3208,9.9346,1.1583,12.494,4.2741,2.5383,3.09,3.4179,7.8663,2.5525,13.8339h-.0009l-.0573-.8047a2.0328,2.0328,0,0,0-.5691-1.2792,29.1966,29.1966,0,0,0-7.5818-5.24,23.4228,23.4228,0,0,0-18.652-1.195A2.0278,2.0278,0,0,0,74.8,181.3564a1.9581,1.9581,0,0,0,1.0089,1.1636,1.85,1.85,0,0,0,1.4511.0715A19.5156,19.5156,0,0,1,92.921,183.6a27.01,27.01,0,0,1,6.08,4.0292l.1621,2.29a1.9954,1.9954,0,0,0,1.0128,1.6191,1.8686,1.8686,0,0,0,1.8738-.0367,3.0025,3.0025,0,0,1,1.1646-.1567,1.059,1.059,0,0,1,.719,1.0608v1.1479a1.1378,1.1378,0,0,1-.6744,1.1128.7661.7661,0,0,1-.2518.0235,3.3775,3.3775,0,0,0-3.4826,2.8513,11.9341,11.9341,0,0,1-23.6724,0Zm11.8362,26.9268a12.4169,12.4169,0,0,1-11.5223-8.0451,6.93,6.93,0,0,0,3.5649-6.0729V209.7a15.196,15.196,0,0,0,15.9144,0v.6494a6.9283,6.9283,0,0,0,3.5643,6.0724A12.6149,12.6149,0,0,1,87.6885,224.4674Z"/><path id="el_4LgUcnDBDL" data-name="Customer 2" d="M110.31,74.9539a2.1143,2.1143,0,0,1-1.347-1.9617v-2.938a12.49,12.49,0,0,0,2.95-5.7959,3.7311,3.7311,0,0,0,.7429-.099,3.8332,3.8332,0,0,0,2.8508-3.7505v-.86a3.8808,3.8808,0,0,0-1.0189-2.6167c1.02-5.6984.1254-10.3628-2.59-13.4986-2.6557-3.0668-6.9155-4.5322-12.3172-4.24a16.039,16.039,0,0,0-9.1857,3.3653c-1.4212.2109-5.4749,1.3123-5.4749,6.96a29.6141,29.6141,0,0,0,.7746,6.71,3.8445,3.8445,0,0,0-1.8782,3.333v.847a3.8336,3.8336,0,0,0,2.8506,3.75,3.7324,3.7324,0,0,0,.7429.0989,12.4883,12.4883,0,0,0,2.95,5.7962v2.9377a2.1146,2.1146,0,0,1-1.3473,1.9617L80.5523,78.208a8.676,8.676,0,0,0-2.5073,1.4958q.3948.4941.8115.9664c.3883.4393.7888.8592,1.1947,1.27a5.7061,5.7061,0,0,1,1.5773-.9335l6.1326-2.3589A13.13,13.13,0,0,0,91.9375,84a12.9054,12.9054,0,0,0,15.5223-.0553,12.9415,12.9415,0,0,0,4.1043-5.2961l6.1311,2.3581a5.7036,5.7036,0,0,1,1.5741.9308c.3591-.3763.7328-.7933,1.1617-1.3.2731-.3244.5341-.6535.7892-.9841a8.6791,8.6791,0,0,0-2.4487-1.4458ZM90.2961,63.3931v0a2.6268,2.6268,0,0,0-2.546-2.1395c-.06,0-.12.0022-.18.0066a.7557.7557,0,0,1-.2116-.0183.8406.8406,0,0,1-.5431-.8326v-.8468a.8043.8043,0,0,1,.5683-.8071.7006.7006,0,0,1,.7.2662,1.9652,1.9652,0,0,0,2.699.4217,9.06,9.06,0,0,0,2.9912-4.0718,1.4992,1.4992,0,1,0-2.8528-.9229,5.9957,5.9957,0,0,1-1.25,1.9837,3.7313,3.7313,0,0,0-.957-.4895,26.7256,26.7256,0,0,1-.7956-6.424c0-1.6919.5081-2.8709,1.51-3.5047A3.5474,3.5474,0,0,1,91.0177,45.5a1.491,1.491,0,0,0,1.038-.4178,12.8923,12.8923,0,0,1,7.6873-2.8951c4.4411-.24,7.8629.87,9.8888,3.2091,2.0026,2.3128,2.6965,5.8887,2.0136,10.3554l-.04.001-.0451-.6048a1.4988,1.4988,0,0,0-.451-.9641,23.1135,23.1135,0,0,0-5.9808-3.9219,19.37,19.37,0,0,0-14.7-.894,1.4992,1.4992,0,0,0,.9871,2.8312,16.2022,16.2022,0,0,1,12.3938.7567,21.4469,21.4469,0,0,1,4.8054,3.021l.1276,1.7109a1.499,1.499,0,0,0,2.2431,1.1879,2.4928,2.4928,0,0,1,.9439-.12.8.8,0,0,1,.5794.7936v.86a.8406.8406,0,0,1-.5436.8326.7.7,0,0,1-.21.0183,2.6193,2.6193,0,0,0-2.7264,2.1331,9.5233,9.5233,0,0,1-18.7323,0ZM99.662,83.5688a9.8185,9.8185,0,0,1-9.1145-6.023,5.1568,5.1568,0,0,0,2.8117-4.5536v-.5037a12.5136,12.5136,0,0,0,12.6056,0v.5035a5.1562,5.1562,0,0,0,2.8114,4.5534A9.9758,9.9758,0,0,1,99.662,83.5688Z"/><path id="el_T6V4VGcKKi" data-name="Customer 1" d="M248.6347,146.9245l-10.7622-4.14a2.7285,2.7285,0,0,1-1.74-2.5322V136.5a15.8382,15.8382,0,0,0,3.76-7.3956,4.695,4.695,0,0,0,.9678-.1259,4.8356,4.8356,0,0,0,3.5962-4.7319v-1.0939a4.8967,4.8967,0,0,0-1.2988-3.3161c1.3-7.2451.167-13.1742-3.2823-17.1566-3.3695-3.8913-8.7768-5.7545-15.6352-5.38a20.3607,20.3607,0,0,0-11.67,4.2787c-1.79.263-6.9412,1.649-6.9412,8.8152a37.6015,37.6015,0,0,0,.9912,8.5554,4.8479,4.8479,0,0,0-2.3948,4.22v1.0775a4.8365,4.8365,0,0,0,3.5952,4.7317,4.6962,4.6962,0,0,0,.9682.1258,15.8443,15.8443,0,0,0,3.76,7.3959v3.7522a2.7289,2.7289,0,0,1-1.7391,2.5323l-10.7622,4.14a11.0448,11.0448,0,0,0-2.4076,1.2907c.4743.6266.9641,1.2395,1.481,1.8241.3156.3571.6379.7039.9632,1.0456a7.2875,7.2875,0,0,1,1.3044-.6749l7.8364-3.0139a16.6591,16.6591,0,0,0,5.3143,6.8271,16.3754,16.3754,0,0,0,19.6966-.07,16.4236,16.4236,0,0,0,5.2232-6.7561l7.835,3.0134a7.2945,7.2945,0,0,1,1.2591.647c.2916-.3208.5956-.6676.9271-1.0594.5138-.61,1.0007-1.2316,1.46-1.8578A11.0479,11.0479,0,0,0,248.6347,146.9245Zm-36.2462-18.8752a3.299,3.299,0,0,0-3.4248-2.6806.9316.9316,0,0,1-.2816-.0242,1.11,1.11,0,0,1-.7214-1.0976V123.17a1.0637,1.0637,0,0,1,.7552-1.0656.9318.9318,0,0,1,.9295.3533,2.46,2.46,0,0,0,3.3783.5282,11.4761,11.4761,0,0,0,3.79-5.159,1.867,1.867,0,1,0-3.5526-1.15,7.703,7.703,0,0,1-1.6225,2.5638,4.716,4.716,0,0,0-1.2562-.6445,34.0427,34.0427,0,0,1-1.0182-8.2018c0-2.1664.6523-3.6775,1.9394-4.4915a4.5534,4.5534,0,0,1,2.0422-.66,1.8571,1.8571,0,0,0,1.2925-.52,16.45,16.45,0,0,1,9.8038-3.6942c5.6639-.3061,10.0256,1.111,12.611,4.096,2.56,2.9564,3.4439,7.5279,2.5653,13.2367-.0407.0007-.0818.0017-.1225.0031l-.06-.8068a1.8662,1.8662,0,0,0-.5618-1.2011,29.2584,29.2584,0,0,0-7.5964-4.981A24.592,24.592,0,0,0,212.61,110.24a1.8673,1.8673,0,1,0,1.2287,3.5267,20.6391,20.6391,0,0,1,15.7944.9638,27.2894,27.2894,0,0,1,6.1346,3.8592l.1635,2.1926a1.8672,1.8672,0,0,0,2.795,1.4793,3.1615,3.1615,0,0,1,1.2268-.157,1.0588,1.0588,0,0,1,.7694,1.0484v1.0938a1.109,1.109,0,0,1-.7218,1.0975.9082.9082,0,0,1-.28.0245,3.29,3.29,0,0,0-3.4258,2.6809,12.1536,12.1536,0,0,1-23.906,0Zm11.9528,25.6964a12.53,12.53,0,0,1-11.6448-7.72,6.519,6.519,0,0,0,3.5879-5.7736v-.71a15.8772,15.8772,0,0,0,16.1137,0v.71a6.5194,6.5194,0,0,0,3.5874,5.7734A12.7287,12.7287,0,0,1,224.3413,153.7457Z"/><g id="el_hHkqNtFMdh_an_yEjTrhTWc" data-animator-group="true" data-animator-type="2"><path id="el_hHkqNtFMdh" data-name="Click" d="M141.5758,246.5246l-23.9707-23.9707a2.9841,2.9841,0,0,0-5.093,2.11v33.19a2.9814,2.9814,0,0,0,4.8264,2.3431l4.4327-3.4655,4.298,7.7347a2.9856,2.9856,0,0,0,3.9444,1.2183l7.1913-3.5956a2.9841,2.9841,0,0,0,1.281-4.1051l-3.5382-6.3663h4.518a2.9841,2.9841,0,0,0,2.11-5.093Zm-14.306,3.561,4.4815,8.0634-1.8511.926-4.6045-8.291a2.9844,2.9844,0,0,0-4.4488-.9023l-2.37,1.8527v-19.87l13.79,13.79H129.88a2.9854,2.9854,0,0,0-2.61,4.4311Z"/></g></g></svg>