<svg xmlns="http://www.w3.org/2000/svg" viewBox="0 0 300 300" id="el_8cTGwxNyq"><style>@-webkit-keyframes kf_el_IbwqBOH6Oar_an_jyCJrsBiz{83.33%{opacity: 0;}84.44%{opacity: 1;}0%{opacity: 0;}100%{opacity: 1;}}@keyframes kf_el_IbwqBOH6Oar_an_jyCJrsBiz{83.33%{opacity: 0;}84.44%{opacity: 1;}0%{opacity: 0;}100%{opacity: 1;}}@-webkit-keyframes kf_el_CHsB7Wbi5C_an_OpqwPOU6R{83.33%{opacity: 0;}84.44%{opacity: 1;}0%{opacity: 0;}100%{opacity: 1;}}@keyframes kf_el_CHsB7Wbi5C_an_OpqwPOU6R{83.33%{opacity: 0;}84.44%{opacity: 1;}0%{opacity: 0;}100%{opacity: 1;}}@-webkit-keyframes kf_el_RlOeoAoWw6_an_RFBjvQw7b{83.33%{opacity: 0;}84.44%{opacity: 1;}0%{opacity: 0;}100%{opacity: 1;}}@keyframes kf_el_RlOeoAoWw6_an_RFBjvQw7b{83.33%{opacity: 0;}84.44%{opacity: 1;}0%{opacity: 0;}100%{opacity: 1;}}@-webkit-keyframes kf_el_dsWs1IXTovA_an_3scQYRNXW{83.33%{opacity: 0;}84.44%{opacity: 1;}0%{opacity: 0;}100%{opacity: 1;}}@keyframes kf_el_dsWs1IXTovA_an_3scQYRNXW{83.33%{opacity: 0;}84.44%{opacity: 1;}0%{opacity: 0;}100%{opacity: 1;}}@-webkit-keyframes kf_el_GVE5f4Vqoi_an_jfx1Fe2bw{83.33%{opacity: 0;}84.44%{opacity: 1;}0%{opacity: 0;}100%{opacity: 1;}}@keyframes kf_el_GVE5f4Vqoi_an_jfx1Fe2bw{83.33%{opacity: 0;}84.44%{opacity: 1;}0%{opacity: 0;}100%{opacity: 1;}}@-webkit-keyframes kf_el_6jeNDY9ZrN_an_ccx3jbfye{83.33%{opacity: 0;}84.44%{opacity: 1;}0%{opacity: 0;}100%{opacity: 1;}}@keyframes kf_el_6jeNDY9ZrN_an_ccx3jbfye{83.33%{opacity: 0;}84.44%{opacity: 1;}0%{opacity: 0;}100%{opacity: 1;}}@-webkit-keyframes kf_el_QqE4w9Mwpg_an_fYpzwzJLK9{77.78%{stroke-dasharray: 100;}0%{stroke-dasharray: 100;}100%{stroke-dasharray: 100;}}@keyframes kf_el_QqE4w9Mwpg_an_fYpzwzJLK9{77.78%{stroke-dasharray: 100;}0%{stroke-dasharray: 100;}100%{stroke-dasharray: 100;}}@-webkit-keyframes kf_el_QqE4w9Mwpg_an_zPktyxE6p{77.78%{stroke-dashoffset: 100;}83.33%{stroke-dashoffset: 0;}0%{stroke-dashoffset: 100;}100%{stroke-dashoffset: 0;}}@keyframes kf_el_QqE4w9Mwpg_an_zPktyxE6p{77.78%{stroke-dashoffset: 100;}83.33%{stroke-dashoffset: 0;}0%{stroke-dashoffset: 100;}100%{stroke-dashoffset: 0;}}@-webkit-keyframes kf_el_JcXo2bS9F__an_9DaEpelpeS{77.78%{stroke-dasharray: 100;}0%{stroke-dasharray: 100;}100%{stroke-dasharray: 100;}}@keyframes kf_el_JcXo2bS9F__an_9DaEpelpeS{77.78%{stroke-dasharray: 100;}0%{stroke-dasharray: 100;}100%{stroke-dasharray: 100;}}@-webkit-keyframes kf_el_JcXo2bS9F__an_Z9cFnoPtn{77.78%{stroke-dashoffset: 100;}83.33%{stroke-dashoffset: 0;}0%{stroke-dashoffset: 100;}100%{stroke-dashoffset: 0;}}@keyframes kf_el_JcXo2bS9F__an_Z9cFnoPtn{77.78%{stroke-dashoffset: 100;}83.33%{stroke-dashoffset: 0;}0%{stroke-dashoffset: 100;}100%{stroke-dashoffset: 0;}}@-webkit-keyframes kf_el_LN8OX4qHPZ_an_aNxHnG79wc{77.78%{stroke-dasharray: 100;}0%{stroke-dasharray: 100;}100%{stroke-dasharray: 100;}}@keyframes kf_el_LN8OX4qHPZ_an_aNxHnG79wc{77.78%{stroke-dasharray: 100;}0%{stroke-dasharray: 100;}100%{stroke-dasharray: 100;}}@-webkit-keyframes kf_el_LN8OX4qHPZ_an_A37nylkJM{77.78%{stroke-dashoffset: 100;}83.33%{stroke-dashoffset: 0;}0%{stroke-dashoffset: 100;}100%{stroke-dashoffset: 0;}}@keyframes kf_el_LN8OX4qHPZ_an_A37nylkJM{77.78%{stroke-dashoffset: 100;}83.33%{stroke-dashoffset: 0;}0%{stroke-dashoffset: 100;}100%{stroke-dashoffset: 0;}}@-webkit-keyframes kf_el_VusSvOL1F-1_an_9A_QQan8y4{77.78%{stroke-dasharray: 100;}0%{stroke-dasharray: 100;}100%{stroke-dasharray: 100;}}@keyframes kf_el_VusSvOL1F-1_an_9A_QQan8y4{77.78%{stroke-dasharray: 100;}0%{stroke-dasharray: 100;}100%{stroke-dasharray: 100;}}@-webkit-keyframes kf_el_VusSvOL1F-1_an_HsBF4BjT_{77.78%{stroke-dashoffset: 100;}83.33%{stroke-dashoffset: 0;}0%{stroke-dashoffset: 100;}100%{stroke-dashoffset: 0;}}@keyframes kf_el_VusSvOL1F-1_an_HsBF4BjT_{77.78%{stroke-dashoffset: 100;}83.33%{stroke-dashoffset: 0;}0%{stroke-dashoffset: 100;}100%{stroke-dashoffset: 0;}}@-webkit-keyframes kf_el_SCYwhLwD04_an_4CfZaMDK1V{77.78%{stroke-dasharray: 100;}0%{stroke-dasharray: 100;}100%{stroke-dasharray: 100;}}@keyframes kf_el_SCYwhLwD04_an_4CfZaMDK1V{77.78%{stroke-dasharray: 100;}0%{stroke-dasharray: 100;}100%{stroke-dasharray: 100;}}@-webkit-keyframes kf_el_SCYwhLwD04_an_whV1iWkZA{77.78%{stroke-dashoffset: 100;}83.33%{stroke-dashoffset: 0;}0%{stroke-dashoffset: 100;}100%{stroke-dashoffset: 0;}}@keyframes kf_el_SCYwhLwD04_an_whV1iWkZA{77.78%{stroke-dashoffset: 100;}83.33%{stroke-dashoffset: 0;}0%{stroke-dashoffset: 100;}100%{stroke-dashoffset: 0;}}@-webkit-keyframes kf_el_0FekRbP1I7_an_I0G5QuaWZu{77.78%{stroke-dasharray: 100;}0%{stroke-dasharray: 100;}100%{stroke-dasharray: 100;}}@keyframes kf_el_0FekRbP1I7_an_I0G5QuaWZu{77.78%{stroke-dasharray: 100;}0%{stroke-dasharray: 100;}100%{stroke-dasharray: 100;}}@-webkit-keyframes kf_el_0FekRbP1I7_an_OAkUrp1sE{77.78%{stroke-dashoffset: 100;}83.33%{stroke-dashoffset: 0;}0%{stroke-dashoffset: 100;}100%{stroke-dashoffset: 0;}}@keyframes kf_el_0FekRbP1I7_an_OAkUrp1sE{77.78%{stroke-dashoffset: 100;}83.33%{stroke-dashoffset: 0;}0%{stroke-dashoffset: 100;}100%{stroke-dashoffset: 0;}}#el_8cTGwxNyq *{-webkit-animation-duration: 9s;animation-duration: 9s;-webkit-animation-iteration-count: 1;animation-iteration-count: 1;-webkit-animation-timing-function: cubic-bezier(0, 0, 1, 1);animation-timing-function: cubic-bezier(0, 0, 1, 1);}#el_ApZSWCgB7d{fill: #4f4f4f;}#el_LN8OX4qHPZ{fill: none;stroke: #fff;stroke-linecap: round;stroke-miterlimit: 10;stroke-width: 8.5px;-webkit-animation-fill-mode: forwards, forwards;animation-fill-mode: forwards, forwards;-webkit-animation-name: kf_el_LN8OX4qHPZ_an_A37nylkJM, kf_el_LN8OX4qHPZ_an_aNxHnG79wc;animation-name: kf_el_LN8OX4qHPZ_an_A37nylkJM, kf_el_LN8OX4qHPZ_an_aNxHnG79wc;-webkit-animation-timing-function: cubic-bezier(0, 0, 1, 1), cubic-bezier(0, 0, 1, 1);animation-timing-function: cubic-bezier(0, 0, 1, 1), cubic-bezier(0, 0, 1, 1);}#el_SCYwhLwD04{fill: none;stroke: #fff;stroke-linecap: round;stroke-miterlimit: 10;stroke-width: 8.5px;-webkit-animation-fill-mode: forwards, forwards;animation-fill-mode: forwards, forwards;-webkit-animation-name: kf_el_SCYwhLwD04_an_whV1iWkZA, kf_el_SCYwhLwD04_an_4CfZaMDK1V;animation-name: kf_el_SCYwhLwD04_an_whV1iWkZA, kf_el_SCYwhLwD04_an_4CfZaMDK1V;-webkit-animation-timing-function: cubic-bezier(0, 0, 1, 1), cubic-bezier(0, 0, 1, 1);animation-timing-function: cubic-bezier(0, 0, 1, 1), cubic-bezier(0, 0, 1, 1);}#el_nAWaPwgLKZ{fill: #61afbb;}#el_E_xAe_6Uo0{fill: #fff;}#el_YDg5wG-dPO{fill: #b5b5b5;}#el_GVE5f4Vqoi{fill: #e7503d;-webkit-animation-fill-mode: forwards;animation-fill-mode: forwards;-webkit-animation-name: kf_el_GVE5f4Vqoi_an_jfx1Fe2bw;animation-name: kf_el_GVE5f4Vqoi_an_jfx1Fe2bw;-webkit-animation-timing-function: cubic-bezier(0, 0, 1, 1);animation-timing-function: cubic-bezier(0, 0, 1, 1);}#el_6jeNDY9ZrN{fill: #e7503d;-webkit-animation-fill-mode: forwards;animation-fill-mode: forwards;-webkit-animation-name: kf_el_6jeNDY9ZrN_an_ccx3jbfye;animation-name: kf_el_6jeNDY9ZrN_an_ccx3jbfye;-webkit-animation-timing-function: cubic-bezier(0, 0, 1, 1);animation-timing-function: cubic-bezier(0, 0, 1, 1);}#el_JcXo2bS9F_{fill: none;stroke: #fff;stroke-linecap: round;stroke-miterlimit: 10;stroke-width: 8.5px;-webkit-animation-fill-mode: forwards, forwards;animation-fill-mode: forwards, forwards;-webkit-animation-name: kf_el_JcXo2bS9F__an_Z9cFnoPtn, kf_el_JcXo2bS9F__an_9DaEpelpeS;animation-name: kf_el_JcXo2bS9F__an_Z9cFnoPtn, kf_el_JcXo2bS9F__an_9DaEpelpeS;-webkit-animation-timing-function: cubic-bezier(0, 0, 1, 1), cubic-bezier(0, 0, 1, 1);animation-timing-function: cubic-bezier(0, 0, 1, 1), cubic-bezier(0, 0, 1, 1);}#el_CHsB7Wbi5C{fill: #e7503d;-webkit-animation-fill-mode: forwards;animation-fill-mode: forwards;-webkit-animation-name: kf_el_CHsB7Wbi5C_an_OpqwPOU6R;animation-name: kf_el_CHsB7Wbi5C_an_OpqwPOU6R;-webkit-animation-timing-function: cubic-bezier(0, 0, 1, 1);animation-timing-function: cubic-bezier(0, 0, 1, 1);}#el_QqE4w9Mwpg{fill: none;stroke: #fff;stroke-linecap: round;stroke-miterlimit: 10;stroke-width: 8.5px;-webkit-animation-fill-mode: forwards, forwards;animation-fill-mode: forwards, forwards;-webkit-animation-name: kf_el_QqE4w9Mwpg_an_zPktyxE6p, kf_el_QqE4w9Mwpg_an_fYpzwzJLK9;animation-name: kf_el_QqE4w9Mwpg_an_zPktyxE6p, kf_el_QqE4w9Mwpg_an_fYpzwzJLK9;-webkit-animation-timing-function: cubic-bezier(0, 0, 1, 1), cubic-bezier(0, 0, 1, 1);animation-timing-function: cubic-bezier(0, 0, 1, 1), cubic-bezier(0, 0, 1, 1);}#el_0FekRbP1I7{fill: none;stroke: #fff;stroke-linecap: round;stroke-miterlimit: 10;stroke-width: 8.5px;-webkit-animation-fill-mode: forwards, forwards;animation-fill-mode: forwards, forwards;-webkit-animation-name: kf_el_0FekRbP1I7_an_OAkUrp1sE, kf_el_0FekRbP1I7_an_I0G5QuaWZu;animation-name: kf_el_0FekRbP1I7_an_OAkUrp1sE, kf_el_0FekRbP1I7_an_I0G5QuaWZu;-webkit-animation-timing-function: cubic-bezier(0, 0, 1, 1), cubic-bezier(0, 0, 1, 1);animation-timing-function: cubic-bezier(0, 0, 1, 1), cubic-bezier(0, 0, 1, 1);}#el_RlOeoAoWw6{fill: #e7503d;-webkit-animation-fill-mode: forwards;animation-fill-mode: forwards;-webkit-animation-name: kf_el_RlOeoAoWw6_an_RFBjvQw7b;animation-name: kf_el_RlOeoAoWw6_an_RFBjvQw7b;-webkit-animation-timing-function: cubic-bezier(0, 0, 1, 1);animation-timing-function: cubic-bezier(0, 0, 1, 1);}#el_dsWs1IXTovA{fill: #e7503d;-webkit-animation-fill-mode: forwards;animation-fill-mode: forwards;-webkit-animation-name: kf_el_dsWs1IXTovA_an_3scQYRNXW;animation-name: kf_el_dsWs1IXTovA_an_3scQYRNXW;-webkit-animation-timing-function: cubic-bezier(0, 0, 1, 1);animation-timing-function: cubic-bezier(0, 0, 1, 1);}#el_VusSvOL1F-1{fill: none;stroke: #fff;stroke-linecap: round;stroke-miterlimit: 10;stroke-width: 8.5px;-webkit-animation-fill-mode: forwards, forwards;animation-fill-mode: forwards, forwards;-webkit-animation-name: kf_el_VusSvOL1F-1_an_HsBF4BjT_, kf_el_VusSvOL1F-1_an_9A_QQan8y4;animation-name: kf_el_VusSvOL1F-1_an_HsBF4BjT_, kf_el_VusSvOL1F-1_an_9A_QQan8y4;-webkit-animation-timing-function: cubic-bezier(0, 0, 1, 1), cubic-bezier(0, 0, 1, 1);animation-timing-function: cubic-bezier(0, 0, 1, 1), cubic-bezier(0, 0, 1, 1);}#el_IbwqBOH6Oar{fill: #e7503d;-webkit-animation-fill-mode: forwards;animation-fill-mode: forwards;-webkit-animation-name: kf_el_IbwqBOH6Oar_an_jyCJrsBiz;animation-name: kf_el_IbwqBOH6Oar_an_jyCJrsBiz;-webkit-animation-timing-function: cubic-bezier(0, 0, 1, 1);animation-timing-function: cubic-bezier(0, 0, 1, 1);}#el_GTo3emlp4X{visibility: hidden;}</style><title>Operations_Managment_031419</title><g id="el_sNEmlsZeCc" data-name="Data Dots"><polyline id="el_LN8OX4qHPZ" data-name="Data Paths" points="203.5 74.5 221.5 41.5 249.5 41.5"/><line id="el_SCYwhLwD04" data-name="Data Paths" x1="150.5" y1="63.5" x2="150.5" y2="37.5"/><path id="el_nAWaPwgLKZ" d="M151.4363,104.9776a40.41,40.41,0,1,0,40.41,40.41A40.4553,40.4553,0,0,0,151.4363,104.9776Zm-24.3477,14.828a35.1142,35.1142,0,0,1,13.1334-7.9279l3.314-1.1123-2.3365,2.6a54.0032,54.0032,0,0,0-7.7419,11.1137l-.4321.8305-.8233-.4467a21.909,21.909,0,0,1-5.1334-3.7437l-.66-.667Zm-10.8343,22.0462a35.2872,35.2872,0,0,1,6.2241-16.7l.6143-.8773.7749.7393a28.183,28.183,0,0,0,6.4811,4.5543l.7079.3681-.2638.7528a44.5527,44.5527,0,0,0-2.3723,11.3244l-.0652.85H116.1536ZM123.0927,166.5l-.6143-.8769a35.2849,35.2849,0,0,1-6.2241-16.7l-.1007-1.0117H128.362l.0809.8313a40.8,40.8,0,0,0,2.77,11.1006l.3124.7842-.7544.3789a28.6157,28.6157,0,0,0-6.9036,4.7549ZM141.5269,179.31a35.5291,35.5291,0,0,1-14.4383-8.3414l-.6786-.6458.6579-.667a22.2621,22.2621,0,0,1,5.8221-4.1012l.7919-.4009.43.7762a71.0684,71.0684,0,0,0,8.37,11.8943l2.05,2.3657Zm7.3856-1.902-1.604-1.7777a67.1544,67.1544,0,0,1-8.2548-11.2177l-.61-1.0526,1.1793-.3009a45.057,45.057,0,0,1,8.3123-1.26l.9775-.0607Zm0-20.7078-.8692.0485a49,49,0,0,0-11,1.8139l-.8027.2346-.3106-.7766a35.9758,35.9758,0,0,1-2.4181-9.0786l-.1249-1.0315h15.5256Zm0-13.8372H133.3891l.0926-1.0049a39.104,39.104,0,0,1,2.0031-9.2025l.29-.8381.8485.2588a48.5489,48.5489,0,0,0,11.4206,1.9487l.8687.049Zm0-13.8275-.9777-.0611a44.4542,44.4542,0,0,1-9.0288-1.4642l-1.1177-.3084.5542-1.0188a51.6354,51.6354,0,0,1,9.0038-11.881l1.5662-1.5429Zm30.8676-4.7617.6146.8773a35.33,35.33,0,0,1,6.2272,16.7l.1016,1.0121H174.5108l-.0809-.8312a40.8,40.8,0,0,0-2.77-11.1l-.3126-.7838.7542-.3793a28.6211,28.6211,0,0,0,6.9041-4.7552Zm-18.4342-12.81a35.5376,35.5376,0,0,1,14.4383,8.3409l.6786.6463-.6579.667a22.2918,22.2918,0,0,1-5.8183,4.1008l-.7914.4017-.43-.7761a71.2432,71.2432,0,0,0-8.3738-11.8948l-2.0507-2.3662Zm-7.3859,1.902,1.6041,1.7777a67.1433,67.1433,0,0,1,8.2548,11.2177l.61,1.0526-1.1793.3006a45.0427,45.0427,0,0,1-8.3123,1.26l-.9776.0607Zm0,20.7078.8692-.0486a49.0014,49.0014,0,0,0,11-1.8141l.8027-.2346.31.7766a35.9556,35.9556,0,0,1,2.4182,9.0791l.1249,1.031H153.96Zm0,13.8369h15.5237l-.0926,1.005a39.1282,39.1282,0,0,1-2.0031,9.2024l-.29.8382-.8485-.2589a48.5875,48.5875,0,0,0-11.4208-1.9485L153.96,156.7Zm1.5663,28.5613-1.5663,1.5429V161.7387l.9778.0611a44.4257,44.4257,0,0,1,9.029,1.4642l1.1177.3083-.5542,1.0189A51.6413,51.6413,0,0,1,155.5263,176.4722Zm20.2579-5.503a35.1259,35.1259,0,0,1-13.1334,7.9277l-3.3143,1.1128,2.3368-2.6006a54.008,54.008,0,0,0,7.7419-11.1137l.4321-.8305.8233.4467a21.9038,21.9038,0,0,1,5.1334,3.7437l.66.667Zm10.8341-22.0466a35.2827,35.2827,0,0,1-6.2239,16.7l-.6143.8773-.7748-.7393a28.1843,28.1843,0,0,0-6.4812-4.554l-.7079-.3681.2638-.7528a44.5539,44.5539,0,0,0,2.3721-11.3246l.0652-.85H186.719Z"/><path id="el_E_xAe_6Uo0" data-name="Inner Eye" d="M158.7543,78.9809a3.2514,3.2514,0,1,0-.3793,6.4918A124.2363,124.2363,0,0,1,253.03,138.1186a13.2389,13.2389,0,0,1,0,15.2509c-49.8995,70.6246-154.2651,70.5366-204.1019,0a13.2361,13.2361,0,0,1,.0017-15.2509A124.22,124.22,0,0,1,143.5829,85.471a3.2514,3.2514,0,1,0-.3792-6.4918A130.6952,130.6952,0,0,0,43.618,134.3664a19.75,19.75,0,0,0,0,22.7553c52.4292,74.2058,162.3672,74.1042,214.7236,0a19.7525,19.7525,0,0,0-.0017-22.7553A130.7023,130.7023,0,0,0,158.7543,78.9809Z"/><path id="el_YDg5wG-dPO" data-name="Outer Eye" d="M242.6812,150.8009a3.2514,3.2514,0,0,0-4.5734.4843,109.5713,109.5713,0,0,1-68.4965,39.6089,92.6037,92.6037,0,0,1-33.2233.2732c.0253.0087.05.0187.0752.0273A109.9239,109.9239,0,0,1,61.59,145.7432a109.9187,109.9187,0,0,1,74.8762-45.453c-.044.0149-.0868.0323-.1307.0474a92.6088,92.6088,0,0,1,33.1159.2336,109.5833,109.5833,0,0,1,68.6561,39.63,3.2513,3.2513,0,0,0,5.0559-4.0892c-48.4382-59.876-141.8892-57.8085-187.1814,6.2988a5.783,5.783,0,0,0,0,6.6646c45.4615,64.3427,138.9278,65.9479,187.1814,6.2988A3.2528,3.2528,0,0,0,242.6812,150.8009Z"/><path id="el_GVE5f4Vqoi" data-name="Dot 2" d="M162.0856,25.9333A11.998,11.998,0,1,0,153.6043,40.69,11.9888,11.9888,0,0,0,162.0856,25.9333ZM150.5,32.9589a3.9072,3.9072,0,1,1,3.9072-3.9072A3.9086,3.9086,0,0,1,150.5,32.9589Z"/><path id="el_6jeNDY9ZrN" data-name="Dot 1" d="M269.0771,37.3063a11.998,11.998,0,1,0-8.4812,14.7566A11.9888,11.9888,0,0,0,269.0771,37.3063Zm-11.5856,7.0256a3.9072,3.9072,0,1,1,3.9072-3.9072A3.9086,3.9086,0,0,1,257.4915,44.3319Z"/><polyline id="el_JcXo2bS9F_" data-name="Data Paths" points="96.5 74.5 78.5 41.5 50.5 41.5"/><path id="el_CHsB7Wbi5C" data-name="Dot 1" d="M39.4041,52.0629a12.0452,12.0452,0,1,0-8.4812-14.7566A11.9888,11.9888,0,0,0,39.4041,52.0629Zm-.8028-11.6382a3.9072,3.9072,0,1,1,3.9072,3.9072A3.9087,3.9087,0,0,1,38.6013,40.4247Z"/><polyline id="el_QqE4w9Mwpg" data-name="Data Paths" points="96.5 218 78.5 251 50.5 251"/><line id="el_0FekRbP1I7" data-name="Data Paths" x1="149.5" y1="229" x2="149.5" y2="255"/><path id="el_RlOeoAoWw6" data-name="Dot 2" d="M137.9144,266.5667a11.998,11.998,0,1,0,8.4813-14.7566A11.9888,11.9888,0,0,0,137.9144,266.5667ZM149.5,259.5411a3.9072,3.9072,0,1,1-3.9072,3.9072A3.9086,3.9086,0,0,1,149.5,259.5411Z"/><path id="el_dsWs1IXTovA" data-name="Dot 1" d="M30.9229,255.1937a11.998,11.998,0,1,0,8.4812-14.7566A11.9888,11.9888,0,0,0,30.9229,255.1937Zm11.5856-7.0256a3.9072,3.9072,0,1,1-3.9072,3.9072A3.9086,3.9086,0,0,1,42.5085,248.1681Z"/><polyline id="el_VusSvOL1F-1" data-name="Data Paths" points="203.5 218 221.5 251 249.5 251"/><path id="el_IbwqBOH6Oar" data-name="Dot 1" d="M260.5959,240.4371a12.0452,12.0452,0,1,0,8.4812,14.7566A11.9888,11.9888,0,0,0,260.5959,240.4371Zm.8028,11.6382a3.9072,3.9072,0,1,1-3.9072-3.9072A3.9087,3.9087,0,0,1,261.3987,252.0753Z"/></g></svg>