<svg xmlns="http://www.w3.org/2000/svg" viewBox="0 0 300 300"><title>ProductResultsIcon_1_Mobile</title><g id="Background"><path d="M154.0428,80.4167a27.2084,27.2084,0,1,1,27.2083-27.2084A27.2388,27.2388,0,0,1,154.0428,80.4167Zm0-45.4187a18.21,18.21,0,1,0,18.21,18.21A18.2313,18.2313,0,0,0,154.0428,34.998Z" style="fill:#525b60"/><path d="M266.7178,224.125H224.0693V181.4756h42.6485Zm-33.65-8.998H257.72V190.4736H233.0674Z" style="fill:#525b60"/><path d="M100.627,224.1242H47.22L73.923,177.8725Zm-37.8223-8.9979H85.0422L73.923,195.8685Z" style="fill:#525b60"/><path d="M215.18,231.09a98.7065,98.7065,0,0,1-122.5268,0h-18.73a111.3078,111.3078,0,0,0,159.9878,0Z" style="fill:#525b60"/><path d="M251.9665,99.8178A110.3055,110.3055,0,0,0,187.2,47.1532a32.7655,32.7655,0,0,1-.1993,13.1811,98.6437,98.6437,0,0,1,63.8868,114.2284H263.76A110.2366,110.2366,0,0,0,251.9665,99.8178Z" style="fill:#525b60"/><path d="M121.1331,60.5227a32.445,32.445,0,0,1-.2772-13.1763A111.3693,111.3693,0,0,0,53.0593,200.8453L61.0239,187.05A98.6486,98.6486,0,0,1,121.1331,60.5227Z" style="fill:#525b60"/></g><g id="Arrows"><path d="M225.1628,152.22a3.2393,3.2393,0,0,0-2.9226-1.8559h-8.4409l-.0422-.6309a57.857,57.857,0,0,0-98.6658-37.0665,3.2,3.2,0,0,0-.2122.26l4.4535,4.6085a3.19,3.19,0,0,0,.3456-.2818,51.4027,51.4027,0,0,1,87.6231,36.3355,3.2311,3.2311,0,0,0,3.2275,3.2284h4.7942l-12.5954,15.1507-12.77-15.1507h4.8452a3.2305,3.2305,0,0,0,3.2266-3.2266A42.2483,42.2483,0,0,0,125.9,123.7089a3.1924,3.1924,0,0,0-.275.3374l4.44,4.5945a3.2288,3.2288,0,0,0,.4222-.345,35.7942,35.7942,0,0,1,60.9674,21.3192l.0826.7486h-8.3266a3.227,3.227,0,0,0-2.4833,5.2916l19.5109,23.4141a3.3323,3.3323,0,0,0,4.9717.0018l19.5118-23.4159A3.2368,3.2368,0,0,0,225.1628,152.22Z" style="fill:#748189"/><path d="M192.9686,189.5486l-.3418.3815a51.4016,51.4016,0,0,1-87.74-36.34,3.2307,3.2307,0,0,0-3.2266-3.2267H96.823l12.6411-15.1506,12.6393,15.1506h-4.8346a3.2314,3.2314,0,0,0-3.2275,3.2267A42.2488,42.2488,0,0,0,186.17,183.4734c.0639-.0639.112-.1384.17-.2066l-4.6842-4.4388c-.0226.0215-.0492.0362-.0716.0585a35.7967,35.7967,0,0,1-60.8515-21.3192l-.0852-.75h8.3389a3.2255,3.2255,0,0,0,2.4745-5.29l-19.51-23.4124a3.3248,3.3248,0,0,0-4.9708-.0017L87.4673,151.5271a3.2243,3.2243,0,0,0,2.4727,5.29h8.45l.0413.6309a57.8558,57.8558,0,0,0,98.6641,37.0692,3.2547,3.2547,0,0,0,.47-.6126Z" style="fill:#748189"/></g></svg>