<svg xmlns="http://www.w3.org/2000/svg" viewBox="0 0 300 300"><title>EducatedAndExmpowered_Mobile</title><g id="Light_Bulb" data-name="Light Bulb"><path id="Light_Bulb-2" data-name="Light Bulb" d="M187.9005,233.656H112.0986a9.0216,9.0216,0,0,0-9.0105,9.0114v9.5532a9.02,9.02,0,0,0,9.0105,9.0093h2.9157v8.0824a9.0793,9.0793,0,0,0,9.0694,9.0694h3.8911a13.9773,13.9773,0,0,0,4.2126,5.5895,13.65,13.65,0,0,0,8.5545,2.9767h18.5162a13.6387,13.6387,0,0,0,8.5526-2.9767,13.9674,13.9674,0,0,0,4.2134-5.5895h3.8922a9.0793,9.0793,0,0,0,9.0694-9.0694V261.23h2.9148a9.0206,9.0206,0,0,0,9.0114-9.0093v-9.5532A9.0224,9.0224,0,0,0,187.9005,233.656Zm-28.643,44.8H140.7418a5.2989,5.2989,0,0,1-4.22-2.0907h26.9559A5.3,5.3,0,0,1,159.2575,278.4564Zm15.2557-10.5473-37.0992.0156-11.9272-.0156v-6.6269h49.0264Zm11.9261-17.1516H113.5607v-6.627h72.8786Z" style="fill:#525b60"/><path id="Light_Bulb-3" data-name="Light Bulb" d="M254.2063,130.2286l12.288-6.5049L264.7351,103.28,251.17,99.2038l-4.2773-11.692L255.47,76.5951,245.553,58.6228l-14.0415,1.794-8.663-8.9426,3.3908-13.4725L209.8637,25.6306l-12.0983,7.34-11.5468-4.6334L183.84,14.6343,163.8374,10l-8.063,11.6358-5.7038.2109-5.8458-.2119L136.1626,10,116.161,14.6343,113.78,28.3372l-11.5458,4.6334-12.0993-7.34L73.7615,38.0017l3.39,13.4725-8.6639,8.9426L54.447,58.6228,44.5279,76.5951l8.5808,10.9167L48.83,99.2038,35.267,103.28l-1.7613,20.4429,12.288,6.5059.8457,12.412L35.924,151.8764l6.6888,19.395,13.8655.9385,5.8275,11.0011-6.0317,12.8066L70.2808,211.01l13.0525-4.7882,9.7883,7.6837-.299,14.2814,14.6948,4.8153.15.0466c.1424.05.2856.0948.4307.1354l.1191.0368.0086-.0039a6.21,6.21,0,0,0,1.527.1877,6.3282,6.3282,0,0,0,6.2524-5.5062l.1037-.1316v-10.86a52.3244,52.3244,0,0,0-14.7141-37.0345,67.059,67.059,0,0,1-16.1521-29.3062l-.1287-.3735a68.7919,68.7919,0,0,1,62.96-93.0187v.0069l1.9248-.0165,1.9278.0165V57.174a68.7667,68.7667,0,0,1,62.8974,93.185l-.11.3756a66.9315,66.9315,0,0,1-16.1086,29.1417A52.3,52.3,0,0,0,183.89,216.9069V226.88l.0289,1.14.07.0408a6.3034,6.3034,0,0,0,8.5663,4.8946l14.6221-4.767-.3-14.2833,9.7893-7.6837,13.0525,4.7882,14.0067-14.9919-6.0307-12.8066,5.8256-11.0011,13.8672-.9385,6.6869-19.3969-10.7164-9.2339Zm-4.39,31.1489-12.7622.8651L226.0884,182.938l5.247,11.1347-4.5038,4.8211-12.0228-4.4128-18.4176,14.4576.2573,12.3034-2.3765,1.0046v-5.34a41.9509,41.9509,0,0,1,11.8873-29.9121,77.3626,77.3626,0,0,0,18.5394-33.3978A79.7409,79.7409,0,0,0,98.4055,65.4654a79.11,79.11,0,0,0-23.1023,88.13,77.3352,77.3352,0,0,0,18.5375,33.4,41.9451,41.9451,0,0,1,11.8864,29.9121v5.34l-2.3748-1.0046.2575-12.3034L85.19,194.481l-12.023,4.4128-4.5027-4.8211L73.91,182.938,62.9464,162.2426l-12.7642-.8651-2.1492-6.2321,9.3172-8.0291-1.591-23.36-11.32-5.9921.5662-6.5718,11.79-3.5428L64.847,85.6462,56.9418,75.5877l3.1867-5.7734,12.2,1.5581L88.63,54.5458,85.5077,42.1387,90.774,38.16l10.5122,6.3772,21.732-8.7219,2.1919-12.621,6.4314-1.49,7.0121,10.1164,9.4719.3446.0049.1355,1.8706-.0679,1.8715.0679.0058-.1366,9.4681-.3435,7.0121-10.1164,6.43,1.49,2.1948,12.621,21.731,8.7219L209.2251,38.16l5.2662,3.9783L211.37,54.5458l16.3022,16.8266,12.2008-1.5581,3.1876,5.7734L235.152,85.6462l8.0514,22.0037,11.7906,3.5428.5671,6.5718-11.32,5.9921-1.591,23.36,9.3172,8.0291Z" style="fill:#525b60"/></g><g id="Fist"><path id="Fist-2" data-name="Fist" d="M181.9012,112.02v-9.7809a12.61,12.61,0,0,0-3.2733-8.5728,10.9024,10.9024,0,0,0-8.0846-3.63,10.6659,10.6659,0,0,0-5.07,1.2831,12.1176,12.1176,0,0,0-2.6973-4.779,10.7632,10.7632,0,0,0-7.9774-3.58,10.6081,10.6081,0,0,0-6.3053,2.0888,11.8305,11.8305,0,0,0-3.8006,4.7425q-.3578-.2074-.7306-.3867a10.1736,10.1736,0,0,0-4.4424-1.0189,10.3177,10.3177,0,0,0-6.21,2.0906,11.8405,11.8405,0,0,0-4.5216,7.599q-.42-.1884-.8561-.3394a10.1333,10.1333,0,0,0-3.3192-.5592,10.26,10.26,0,0,0-6.1928,2.0921,11.919,11.919,0,0,0-4.6395,9.5367v49.0585a19.2933,19.2933,0,0,0,3.1191,10.6036c1.776,2.7138,3.2233,4.9311,4.3013,6.59a10.5146,10.5146,0,0,1,1.6739,5.7485v46.2747a3.4122,3.4122,0,1,0,6.819,0V180.807a17.7957,17.7957,0,0,0-2.8447-9.7273c-1.0667-1.6419-2.5182-3.8659-4.3142-6.61a12.0158,12.0158,0,0,1-1.9356-6.6049v-19.222a10.1464,10.1464,0,0,0,9.0487-.5038,10.8906,10.8906,0,0,0,2.1283-1.58,11.0842,11.0842,0,0,0,2.3615,1.9491,10.2394,10.2394,0,0,0,10.9855-.1392,11.1585,11.1585,0,0,0,2.4612-2.1731,11.2238,11.2238,0,0,0,2.141,1.5284,10.6034,10.6034,0,0,0,5.0734,1.3047h10.4583v1.0138h-5.4573c-7.0712,0-12.824,6.1891-12.824,13.7968v6.2882a3.4122,3.4122,0,1,0,6.8189,0V153.84c0-3.6938,2.6938-6.6989,6.0051-6.6989h8.8668a3.4853,3.4853,0,0,0,3.4093-3.549V135.48a3.4852,3.4852,0,0,0-3.4093-3.5489h-.0734l-.0019,0H154.7981a4.6917,4.6917,0,0,1-4.3852-4.92v-1.0363a7.2909,7.2909,0,0,1,1.8769-4.94,5.8816,5.8816,0,0,1,4.35-1.9766H180.693c.1292,0,.271.0065.4463.02,3.2411.2574,5.78,3.2968,5.78,6.9194v26.875a10.3239,10.3239,0,0,1-2.6614,7.0241l-9.5157,10.358a17.5468,17.5468,0,0,0-4.5513,11.9307v45.7156a3.4121,3.4121,0,1,0,6.8188,0V182.1861a10.3241,10.3241,0,0,1,2.6615-7.0239l9.5157-10.3582a17.5466,17.5466,0,0,0,4.5514-11.9307v-26.875C193.7381,118.6963,188.53,112.6785,181.9012,112.02Zm-53.276,15.824a4.0429,4.0429,0,1,1-8.0267,0V108.8061a4.7954,4.7954,0,0,1,1.1961-3.2178,3.79,3.79,0,0,1,2.717-1.31l.0663-.0022.038-.0012a3.58,3.58,0,0,1,1.7865.4806,4.609,4.609,0,0,1,2.2228,4.05Zm14.9689.4974a4.1048,4.1048,0,1,1-8.15,0V100.0822a4.3971,4.3971,0,0,1,3.9878-4.5949l.0724-.0024.0223-.0007a3.643,3.643,0,0,1,1.848.5082,4.6912,4.6912,0,0,1,2.2191,4.0735v26.929l0,.0549Zm15.59-33v16.6193H156.64a12.2626,12.2626,0,0,0-6.2274,1.6924V100.0822l-.0005-.0447v-5.043A4.6971,4.6971,0,0,1,154.78,90.059l.0413-.0005a4.128,4.128,0,0,1,3.0247,1.3888,5.2169,5.2169,0,0,1,1.3376,3.5472Zm15.8985,16.6193h-9.08v-9.7213a4.8565,4.8565,0,0,1,4.5182-5.1048l.0373.0005a4.2731,4.2731,0,0,1,3.1407,1.4383,5.3872,5.3872,0,0,1,1.3835,3.666Z" style="fill:#90a0a5"/></g></svg>