<svg id="Capa_1" data-name="Capa 1" xmlns="http://www.w3.org/2000/svg" viewBox="0 0 496 496"><defs><style>.cls-1{fill:#fff;}.cls-2{fill:#61afbb;}.cls-3{fill:#b5b5b5;}.cls-4{fill:#e7503d;stroke:#e7503d;stroke-miterlimit:10;}</style></defs><title>Services_DataValidation</title><path class="cls-1" d="M487.86,151.75c-1.73-60.62-50.52-110.07-111.11-112.6a115.53,115.53,0,0,0-85.3,32.42L251.88,33.1l-35.94,18a123.56,123.56,0,0,0-11.56-4.85L191.67,8.09H134.08L121.37,46.23a122.5,122.5,0,0,0-11.57,4.84l-36-18L33.06,73.79l18,36a123.62,123.62,0,0,0-4.84,11.57L8.09,134.07v57.59l38.14,12.72c1.39,3.86,3,7.73,4.84,11.56l-18,36,40.73,40.73,36-18a122.5,122.5,0,0,0,11.57,4.84l12.7,38.14h57.59l12.72-38.14a123.45,123.45,0,0,0,11.56-4.84l36,18L292.68,252l-13.75-27.5a116.11,116.11,0,0,0,69.68,44.42v48.78H333.13V448.52c0,20.52,15.7,38,36.18,39.31a38.74,38.74,0,0,0,41.21-38.62V317.65H395V268.88A116.25,116.25,0,0,0,487.86,151.75Zm-239,122.1-33-16.51-3.5,1.8a107.65,107.65,0,0,1-16.51,6.92l-3.74,1.19-11.64,34.92H145.23l-11.64-34.92-3.74-1.19a106.76,106.76,0,0,1-16.52-6.92l-3.49-1.8-33,16.51-25-25,16.51-33-1.8-3.5a107.76,107.76,0,0,1-6.91-16.52l-1.2-3.73L23.57,180.51V145.23l34.92-11.64,1.2-3.74a106.59,106.59,0,0,1,6.91-16.51l1.8-3.5-16.51-33,25-25,33,16.51,3.5-1.8a107.68,107.68,0,0,1,16.52-6.91l3.73-1.2,11.64-34.92h35.29l11.64,34.92,3.73,1.2A106.19,106.19,0,0,1,212.4,66.6l3.5,1.8L249,51.85,281,83a115.66,115.66,0,0,0-16.32,116.77,111.85,111.85,0,0,1-5.55,12.63l-1.79,3.49,16.5,33ZM395,449.21a23.23,23.23,0,0,1-25,23.15c-11.81-.88-21.43-11.78-21.43-23.63V333.13H395Zm-31-131.56V270.82c2.56.17,5.12.4,7.73.4s5.17-.23,7.74-.4v46.83Zm11.07-62A100.71,100.71,0,0,1,271.27,151.79c1.72-52.71,44.5-95.5,97.22-97.21A100.71,100.71,0,0,1,472.38,158.47C470.66,211.19,427.88,254,375.16,255.68Z"/><path class="cls-2" d="M162.87,72.07a90.8,90.8,0,1,0,90.8,90.8A90.9,90.9,0,0,0,162.87,72.07Zm-54.71,33.32a78.89,78.89,0,0,1,29.51-17.81l7.45-2.5-5.25,5.84a121.42,121.42,0,0,0-17.4,25l-1,1.87-1.85-1a49.07,49.07,0,0,1-11.53-8.41l-1.49-1.5ZM83.82,154.93a79.25,79.25,0,0,1,14-37.53l1.38-2,1.74,1.66a63.41,63.41,0,0,0,14.57,10.23l1.59.83-.6,1.69a100.42,100.42,0,0,0-5.33,25.45L111,157.2H83.59Zm15.36,55.38-1.38-2a79.25,79.25,0,0,1-14-37.53l-.23-2.27H111l.18,1.87a92,92,0,0,0,6.23,24.94l.7,1.76-1.69.86a64.26,64.26,0,0,0-15.52,10.68ZM140.6,239.1a79.87,79.87,0,0,1-32.44-18.75l-1.52-1.45,1.48-1.5a50,50,0,0,1,13.08-9.21l1.78-.9,1,1.74a160.13,160.13,0,0,0,18.81,26.73l4.61,5.31Zm16.6-4.28-3.6-4a150.49,150.49,0,0,1-18.55-25.21l-1.37-2.36,2.65-.68A101.33,101.33,0,0,1,155,199.75l2.2-.14Zm0-46.53-1.95.11a109.51,109.51,0,0,0-24.72,4.08l-1.8.52-.7-1.74a80.93,80.93,0,0,1-5.44-20.4l-.28-2.32H157.2Zm0-31.09H122.32l.21-2.26a87.5,87.5,0,0,1,4.5-20.68l.65-1.88,1.91.58a109,109,0,0,0,25.66,4.38l1.95.11Zm0-31.07L155,126a99.12,99.12,0,0,1-20.28-3.29L132.2,122l1.25-2.29A116.27,116.27,0,0,1,153.68,93l3.52-3.46Zm69.36-10.7,1.38,2a79.33,79.33,0,0,1,14,37.53l.23,2.27H214.72l-.18-1.87a91.59,91.59,0,0,0-6.23-24.94l-.7-1.76,1.69-.85a64.52,64.52,0,0,0,15.52-10.69ZM185.14,86.65a79.74,79.74,0,0,1,32.44,18.74l1.52,1.45-1.47,1.5a50,50,0,0,1-13.08,9.21l-1.78.91-1-1.75A160.55,160.55,0,0,0,183,90l-4.61-5.31Zm-16.6,4.27,3.61,4a151.8,151.8,0,0,1,18.54,25.21l1.38,2.37-2.65.67A100.6,100.6,0,0,1,170.74,126l-2.2.14Zm0,46.53,2-.11a109.6,109.6,0,0,0,24.72-4.08l1.81-.52.69,1.74a81,81,0,0,1,5.44,20.4l.28,2.32H168.54Zm0,31.09h34.88l-.21,2.26a87.61,87.61,0,0,1-4.5,20.68l-.65,1.88-1.9-.58a109.2,109.2,0,0,0-25.67-4.38l-2-.11Zm3.52,64.18-3.52,3.47V199.61l2.2.14A99.91,99.91,0,0,1,191,203l2.51.69L192.29,206A116,116,0,0,1,172.06,232.72Zm45.52-12.37a78.91,78.91,0,0,1-29.51,17.82l-7.45,2.5,5.25-5.85a121.42,121.42,0,0,0,17.4-25l1-1.87,1.85,1a49.14,49.14,0,0,1,11.53,8.41l1.49,1.5Zm24.34-49.54a79.25,79.25,0,0,1-14,37.53l-1.38,2-1.74-1.66a63,63,0,0,0-14.57-10.23l-1.59-.83.6-1.69a100.42,100.42,0,0,0,5.33-25.45l.14-1.91h27.42Z"/><path class="cls-3" d="M436.05,211c.46-.53.92-1.07,1.37-1.61s1.08-1.33,1.61-2l.71-.92c.69-.92,1.37-1.85,2-2.79l.13-.17a1.4,1.4,0,0,1,.1-.16,84.77,84.77,0,0,0,6.23-85.56c-.32-.67-.67-1.33-1-2l-.54-1A84.73,84.73,0,0,0,390.05,72c-.7-.15-1.4-.27-2.1-.41l-1.8-.35a85.72,85.72,0,0,0-13-1.21,84.66,84.66,0,0,0-42.5,10.64c-.43.23-.85.48-1.27.72s-1.05.61-1.56.93a84.39,84.39,0,0,0-25.89,24.25c-1.22,1.76-2.35,3.56-3.42,5.38l-.45.77c-.49.85-1,1.7-1.42,2.57q-.37.67-.72,1.38c-.35.69-.7,1.39-1,2.1s-.63,1.33-.92,2c-.23.51-.45,1-.67,1.54-.38.9-.74,1.8-1.08,2.72-.11.28-.22.56-.32.84-.43,1.16-.83,2.33-1.21,3.51,0,.06,0,.12-.05.18a85.12,85.12,0,0,0,5.19,63.9h0c.52,1,1.06,2,1.62,3.05.24.43.49.86.74,1.29s.67,1.15,1,1.71a85,85,0,0,0,70.28,40.73h.37c1.68,0,3.37,0,5.06,0h0a84.36,84.36,0,0,0,32.3-7.62c.15-.07.31-.13.46-.21,1-.44,1.9-.9,2.84-1.39,2.3-1.16,4.53-2.44,6.7-3.81h0a84.56,84.56,0,0,0,15.39-12.44h0l.29-.31c.7-.72,1.39-1.46,2.07-2.21Zm-22.42-.12v0a70.31,70.31,0,0,1-6.42,4.29c-.64.38-1.28.75-1.94,1.11-.28.16-.57.31-.86.46a69.77,69.77,0,0,1-19.55,6.85h0a70.31,70.31,0,0,1-10.6,1.17c-1.12,0-2.23,0-3.34,0h-.82c-1,0-2-.07-3-.14l-.94-.06c-1.16-.09-2.31-.2-3.46-.35l-.1,0c-16.63-2.18-32.05-10.37-44-23.9a61.15,61.15,0,0,1-13.48-24.65c-10-34.76,6.51-67.28,33.95-82l.74-.4.54-.27a70.26,70.26,0,0,1,34.08-7.46h.37c1,0,2,.11,3.06.2l1.12.1,1.42.16c.83.1,1.66.22,2.48.35l.77.13a70.14,70.14,0,0,1,48.62,34.14,1,1,0,0,1,.08.14l.32.58a69.87,69.87,0,0,1-2.12,71.22,71.32,71.32,0,0,1-5.53,7.49c-1.11,1.3-2.24,2.59-3.45,3.82h0A69.08,69.08,0,0,1,413.63,210.87Z"/><path class="cls-1" d="M284.79,378.56a20.58,20.58,0,0,0-15.32,6.88L222.4,365.83c0-.38.11-.73.11-1.11a20.76,20.76,0,1,0-39.86,8.12l-54.27,49.74a19.72,19.72,0,0,0-16.65-1.2l-37.6-46a20.58,20.58,0,0,0,3.06-10.7,21,21,0,1,0-13.77,19.47L101,430.14A20.55,20.55,0,0,0,98,440.84a20.76,20.76,0,1,0,39.86-8.12L192.08,383a20.43,20.43,0,0,0,9.67,2.51,20.66,20.66,0,0,0,15.33-6.88l47.06,19.61c0,.38-.11.73-.11,1.11a20.76,20.76,0,1,0,20.76-20.76ZM56.43,371.64a6.92,6.92,0,1,1,6.92-6.92A6.92,6.92,0,0,1,56.43,371.64Zm62.28,76.12a6.92,6.92,0,1,1,6.92-6.92A6.92,6.92,0,0,1,118.71,447.76Zm83-76.12a6.92,6.92,0,1,1,6.92-6.92A6.92,6.92,0,0,1,201.75,371.64Zm83,34.6a6.92,6.92,0,1,1,6.92-6.92A6.92,6.92,0,0,1,284.79,406.24Z"/><path class="cls-4" d="M77,359.2a21.25,21.25,0,1,0-15,26.13A21.23,21.23,0,0,0,77,359.2ZM56.43,371.64a6.92,6.92,0,1,1,6.92-6.92A6.92,6.92,0,0,1,56.43,371.64Z"/><path class="cls-4" d="M139.23,435.32a21.25,21.25,0,1,0-15,26.13A21.23,21.23,0,0,0,139.23,435.32Zm-20.52,12.44a6.92,6.92,0,1,1,6.92-6.92A6.92,6.92,0,0,1,118.71,447.76Z"/><path class="cls-4" d="M222.27,359.2a21.25,21.25,0,1,0-15,26.13A21.23,21.23,0,0,0,222.27,359.2Zm-20.52,12.44a6.92,6.92,0,1,1,6.92-6.92A6.92,6.92,0,0,1,201.75,371.64Z"/><path class="cls-4" d="M305.21,393.8a21.24,21.24,0,1,0-15,26.13A21.22,21.22,0,0,0,305.21,393.8ZM284.7,406.24a6.92,6.92,0,1,1,6.92-6.92A6.93,6.93,0,0,1,284.7,406.24Z"/></svg>