<svg xmlns="http://www.w3.org/2000/svg" width="105" height="105" viewBox="0 0 105 105"><title>Support_for_Brand</title><path d="M85,63.41l-.31.25v13a7,7,0,0,1-7,7H41.49a1.89,1.89,0,0,0-1.89,1.89V97.61L22.76,84.06a1.9,1.9,0,0,0-1.19-.42H12.3a7,7,0,0,1-7-7V39.35a7,7,0,0,1,7-7h0V28.62h0A10.74,10.74,0,0,0,1.57,39.35V76.69A10.74,10.74,0,0,0,12.3,87.42h8.61L40.31,103a1.91,1.91,0,0,0,1.18.42,1.83,1.83,0,0,0,.82-.19,1.88,1.88,0,0,0,1.07-1.71V87.42H77.74A10.74,10.74,0,0,0,88.47,76.69V63.41Z" fill="#cfd3d3"/><path d="M92.26.82H26.83A10.75,10.75,0,0,0,16.09,11.56V48.89A10.75,10.75,0,0,0,26.83,59.63H61.18V73.77a1.9,1.9,0,0,0,1.08,1.71,2,2,0,0,0,.82.18,1.85,1.85,0,0,0,1.18-.42l19.4-15.61h8.6A10.75,10.75,0,0,0,103,48.89V11.56A10.75,10.75,0,0,0,92.26.82Zm7,48.07a7,7,0,0,1-7,7H83a1.87,1.87,0,0,0-1.18.42L65,69.82V57.74a1.9,1.9,0,0,0-1.9-1.9H26.83a7,7,0,0,1-6.95-7V11.56a7,7,0,0,1,7-6.95H92.26a7,7,0,0,1,7,7ZM90.69,21.72l-4.63-.67L84,16.85a4.89,4.89,0,0,0-8.77,0l-.51,1,1.74.26c.27,0,.52.11.78.17l.18-.37a2.47,2.47,0,0,1,2.2-1.36,2.45,2.45,0,0,1,2.19,1.36l2.64,5.35,5.91.86a2.45,2.45,0,0,1,1.35,4.17l-4.27,4.17,1,5.88a2.46,2.46,0,0,1-1,2.4,2.51,2.51,0,0,1-1.44.46,2.43,2.43,0,0,1-1.14-.28L79.6,38.16,77.06,39.5,77.49,42l2.11-1.1,4.14,2.17a4.91,4.91,0,0,0,2.28.57A4.89,4.89,0,0,0,90.84,38l-.79-4.62,3.35-3.27a4.89,4.89,0,0,0-2.71-8.34ZM34.21,40.94a2.43,2.43,0,0,1-1.14.28,2.44,2.44,0,0,1-2.41-2.86l1-5.88L27.4,28.31a2.43,2.43,0,0,1-.62-2.5,2.45,2.45,0,0,1,2-1.67l5.91-.86,2.64-5.35a2.47,2.47,0,0,1,2.2-1.36,2.45,2.45,0,0,1,2.19,1.36l.18.37a6.76,6.76,0,0,1,.78-.17l1.74-.26-.51-1a4.89,4.89,0,0,0-8.77,0L33,21.05l-4.64.67a4.89,4.89,0,0,0-2.71,8.34l3.36,3.27L28.25,38a4.86,4.86,0,0,0,1.95,4.78,4.79,4.79,0,0,0,2.87.94,4.88,4.88,0,0,0,2.28-.57l4.15-2.17L41.6,42,42,39.5,39.5,38.16ZM72.62,36l6-5.83a4.89,4.89,0,0,0-2.72-8.34l-8.26-1.2-3.7-7.49a4.89,4.89,0,0,0-8.77,0l-3.7,7.49-8.26,1.2a4.89,4.89,0,0,0-2.71,8.34l6,5.83-1.42,8.24a4.88,4.88,0,0,0,7.1,5.15l7.4-3.88,7.39,3.88a4.91,4.91,0,0,0,2.28.57A4.91,4.91,0,0,0,74,44.28Zm-1,8.65a2.45,2.45,0,0,1-3.55,2.58l-8.53-4.49L51,47.27a2.43,2.43,0,0,1-2.57-.19,2.44,2.44,0,0,1-1-2.39l1.64-9.5-6.91-6.73a2.44,2.44,0,0,1,1.36-4.17l9.54-1.39,4.26-8.64a2.45,2.45,0,0,1,4.39,0L66,22.9l9.54,1.39a2.47,2.47,0,0,1,2,1.67,2.43,2.43,0,0,1-.62,2.5L70,35.19Z" fill="#fff"/></svg>