<svg id="Capa_1" data-name="Capa 1" xmlns="http://www.w3.org/2000/svg" viewBox="0 0 496 496"><defs><style>.cls-1{fill:#e7503d;}.cls-2{fill:#fff;}.cls-3{fill:#b5b5b5;}.cls-4{fill:#61afbb;}</style></defs><title>Services_ExperienceManagement</title><polygon class="cls-1" points="310.74 273.89 303.86 262.17 302.34 259.58 299.75 261.1 238.34 297.15 235.75 298.67 237.27 301.25 244.16 312.98 245.68 315.57 248.26 314.05 309.67 278 312.26 276.48 310.74 273.89"/><polygon class="cls-1" points="296.87 165.52 299.28 167.31 301.06 164.9 309.17 153.98 310.95 151.57 308.54 149.78 255.79 110.64 253.38 108.85 251.59 111.26 243.49 122.18 241.7 124.59 244.11 126.37 296.87 165.52"/><path class="cls-2" d="M251.27,133.59c.41-.48.82-1,1.22-1.45s1-1.19,1.44-1.79l.63-.82c.62-.82,1.23-1.65,1.81-2.49a1.53,1.53,0,0,0,.11-.16,1,1,0,0,0,.09-.13,75.69,75.69,0,0,0,5.57-76.39c-.29-.6-.6-1.18-.91-1.77-.16-.31-.31-.63-.48-.93A75.56,75.56,0,0,0,210.21,9.49c-.62-.14-1.25-.25-1.87-.37s-1.07-.22-1.61-.31a75.76,75.76,0,0,0-49.55,8.42l-1.14.64c-.47.27-.93.55-1.39.83a75.44,75.44,0,0,0-23.11,21.64c-1.1,1.58-2.1,3.19-3.06,4.81l-.4.69c-.44.76-.86,1.52-1.27,2.29-.22.41-.43.82-.64,1.23-.32.62-.62,1.25-.92,1.87s-.56,1.2-.82,1.8c-.21.45-.4.91-.6,1.37-.33.8-.66,1.61-1,2.43-.09.25-.19.49-.28.74-.38,1-.74,2.09-1.07,3.14l-.06.16a75.95,75.95,0,0,0,4.64,57.05h0c.47.92,1,1.83,1.45,2.72.21.39.43.77.65,1.15s.61,1,.92,1.54a75.89,75.89,0,0,0,62.74,36.35h.33c1.5,0,3,0,4.51,0h0a75.44,75.44,0,0,0,28.84-6.8l.41-.19c.85-.4,1.7-.81,2.54-1.24,2-1,4-2.18,6-3.4h0a75.4,75.4,0,0,0,13.74-11.11h0l.26-.27c.63-.65,1.24-1.31,1.85-2C250.64,134.3,251,134,251.27,133.59Zm-20-.11v0a61.44,61.44,0,0,1-5.73,3.83c-.57.34-1.14.67-1.73,1l-.77.41a62.44,62.44,0,0,1-17.46,6.11h0a60.71,60.71,0,0,1-9.47,1c-1,0-2,0-3,0h-.73c-.89,0-1.77-.06-2.66-.12l-.84-.05c-1-.09-2.06-.19-3.08-.32h-.09A63.17,63.17,0,0,1,146.43,124a59.83,59.83,0,0,1-6.8-9.4A60.63,60.63,0,0,1,134.39,102C125.46,71,140.21,42,164.7,28.86l.66-.35.49-.25a62.62,62.62,0,0,1,30.42-6.66h.32c.91,0,1.83.1,2.74.18l1,.09,1.27.14c.74.09,1.47.2,2.21.31l.68.12A62.58,62.58,0,0,1,247.9,52.93l.08.12c.09.17.18.35.28.52a61.79,61.79,0,0,1-6.84,70.26c-1,1.17-2,2.31-3.07,3.41h0A62.48,62.48,0,0,1,231.26,133.48Z"/><path class="cls-3" d="M277.48,449.44l-47.79-47.79a5.95,5.95,0,0,0-10.16,4.2V472a6,6,0,0,0,3.34,5.34,6,6,0,0,0,2.61.6,5.92,5.92,0,0,0,3.67-1.27L238,469.8l8.57,15.42a6,6,0,0,0,7.87,2.43l14.34-7.17a6,6,0,0,0,3-3.56,6,6,0,0,0-.47-4.63l-7.05-12.69h9a6,6,0,0,0,4.2-10.16ZM249,456.54l8.93,16.08-3.69,1.85L245,457.94a6,6,0,0,0-4-2.95,5.76,5.76,0,0,0-1.18-.12,5.94,5.94,0,0,0-3.67,1.27l-4.73,3.69V420.21l27.5,27.5h-4.76a5.94,5.94,0,0,0-5.2,8.83Z"/><path class="cls-2" d="M437.56,274.49c.49-.58,1-1.15,1.46-1.74s1.17-1.42,1.73-2.14l.76-1c.75-1,1.47-2,2.17-3,0-.07.09-.13.13-.19l.11-.16a90.84,90.84,0,0,0,6.69-91.69c-.35-.72-.73-1.42-1.09-2.13-.2-.37-.38-.75-.58-1.11a90.75,90.75,0,0,0-60.68-45.82c-.74-.17-1.49-.29-2.24-.44s-1.28-.26-1.93-.37a90.95,90.95,0,0,0-59.48,10.09l-1.37.78-1.67,1a90.67,90.67,0,0,0-27.73,26c-1.32,1.89-2.52,3.83-3.67,5.78-.16.27-.33.54-.48.82-.53.91-1,1.83-1.53,2.75l-.77,1.48c-.38.74-.75,1.49-1.1,2.25s-.67,1.43-1,2.15c-.24.55-.48,1.09-.71,1.64-.41,1-.79,1.94-1.17,2.92l-.33.9c-.46,1.24-.89,2.5-1.3,3.77l-.06.19a91.18,91.18,0,0,0,5.57,68.47h0c.56,1.11,1.14,2.19,1.74,3.27l.78,1.38c.36.62.73,1.23,1.1,1.84a91.1,91.1,0,0,0,75.31,43.64h.39c1.8,0,3.61,0,5.43,0v0a90.5,90.5,0,0,0,34.61-8.16l.49-.22c1-.48,2-1,3-1.49,2.46-1.25,4.86-2.62,7.19-4.09h0a90.76,90.76,0,0,0,16.48-13.34h0l.31-.33c.75-.78,1.49-1.57,2.21-2.37Zm-24-.13,0,0a73.43,73.43,0,0,1-6.87,4.6c-.69.41-1.38.81-2.08,1.19-.3.17-.61.33-.92.49a74.47,74.47,0,0,1-21,7.34h0a75.35,75.35,0,0,1-11.36,1.25c-1.2.05-2.39.05-3.58,0h-.88c-1.06,0-2.13-.08-3.19-.15l-1-.07c-1.24-.09-2.48-.22-3.7-.38h-.11C341,286.29,324.52,277.51,311.71,263a65.39,65.39,0,0,1-14.45-26.41c-10.72-37.25,7-72.09,36.39-87.82.26-.15.52-.29.79-.42l.58-.3a75.11,75.11,0,0,1,36.51-8h.4c1.09,0,2.18.12,3.28.21l1.2.11,1.52.17c.89.11,1.78.24,2.65.38l.83.14a75.13,75.13,0,0,1,52.1,36.58l.09.14c.12.21.22.42.34.63a74.28,74.28,0,0,1-8.2,84.34c-1.18,1.4-2.4,2.77-3.69,4.09h0A75.42,75.42,0,0,1,413.54,274.36Z"/><path class="cls-2" d="M208.05,444.69V423.85c-.64.38-1.29.76-2,1.12-.34.19-.69.37-1,.55a83.44,83.44,0,0,1-23.42,8.2h0a82.39,82.39,0,0,1-12.7,1.4c-1.34.05-2.67.05-4,0h-1c-1.19,0-2.38-.09-3.57-.17l-1.13-.07c-1.38-.11-2.76-.25-4.13-.43H155c-19.93-2.61-38.39-12.43-52.72-28.63a73.46,73.46,0,0,1-16.14-29.52c-12-41.64,7.8-80.58,40.66-98.17l.89-.47.65-.33a84,84,0,0,1,40.81-8.93l.44,0c1.22.05,2.44.13,3.67.23l1.34.13c.57.05,1.14.11,1.7.18,1,.13,2,.26,3,.42l.92.16a84,84,0,0,1,58.24,40.88l.09.17c.14.23.25.47.38.7A83.69,83.69,0,0,1,237.36,395l13.41,13.42A101.49,101.49,0,0,0,257.55,307c-.39-.81-.81-1.6-1.22-2.39-.22-.41-.42-.83-.64-1.24a101.41,101.41,0,0,0-67.82-51.21c-.83-.18-1.67-.33-2.5-.49s-1.44-.3-2.16-.42a101.66,101.66,0,0,0-66.48,11.29c-.52.28-1,.58-1.53.87s-1.25.73-1.87,1.1a101.36,101.36,0,0,0-31,29c-1.47,2.12-2.82,4.28-4.1,6.46l-.54.91C77.1,302,76.54,303,76,304c-.29.55-.58,1.1-.86,1.65-.43.84-.84,1.67-1.24,2.52s-.75,1.59-1.1,2.4c-.27.61-.54,1.22-.8,1.84-.45,1.08-.88,2.16-1.3,3.26-.13.33-.26.67-.38,1-.51,1.39-1,2.8-1.44,4.21,0,.08-.05.15-.07.22A101.89,101.89,0,0,0,75,397.65h0c.62,1.24,1.27,2.45,2,3.66.28.51.58,1,.87,1.54.4.69.81,1.38,1.23,2.06a101.79,101.79,0,0,0,84.17,48.77h.44c2,.05,4,.05,6.06,0v0A101,101,0,0,0,208.05,444.69Z"/><path class="cls-4" d="M192.57,378.31V370.1a32.93,32.93,0,0,0,7.62-16h0a8,8,0,0,0,2.43-.22c3.75-.94,6.47-4.73,6.47-9v-2.29a9.5,9.5,0,0,0-2.65-6.64c2.66-15.09.51-27.38-6.24-35.6-6.5-7.92-17-11.7-30.33-10.94A38.64,38.64,0,0,0,147,298.26c-3.44.47-13.27,3.09-13.27,17.57a82,82,0,0,0,2.11,18.39,9.19,9.19,0,0,0-4.89,8.34v2.26c0,4.28,2.72,8.07,6.46,9a8,8,0,0,0,2.43.22h0a33,33,0,0,0,7.62,16v8.21a6.65,6.65,0,0,1-4,6.16l-21.37,8.66a21.8,21.8,0,0,0-12.8,15.14q2.44,2.42,5,4.57a16.86,16.86,0,0,1,.68-3.9l2.83-5.47a15.36,15.36,0,0,1,6.3-4.76l16.36-6.63a33.61,33.61,0,0,0,10.58,14.73,30.38,30.38,0,0,0,38.06-.14,33.72,33.72,0,0,0,10.41-14.59l11.2,4.54a16.3,16.3,0,0,1,4.76-4.48l-18.94-7.67A6.65,6.65,0,0,1,192.57,378.31Zm-47.13-25.37a5.73,5.73,0,0,0-5.88-4.86,2.56,2.56,0,0,1-.82-.07,3.21,3.21,0,0,1-2.1-3.19v-2.25a3.11,3.11,0,0,1,2.22-3.14,2.67,2.67,0,0,1,2.69,1.09,4.06,4.06,0,0,0,2,1.5,3.9,3.9,0,0,0,3.48-.59,22.93,22.93,0,0,0,7.2-10.33,3,3,0,0,0-1.83-3.76,2.8,2.8,0,0,0-3.57,1.92,17.35,17.35,0,0,1-4,6.32,8.22,8.22,0,0,0-3.28-1.86,75.83,75.83,0,0,1-2.17-17.89c0-4.87,1.43-8.29,4.25-10.17a9.36,9.36,0,0,1,4.52-1.52,2.77,2.77,0,0,0,2-.84c.07-.07,7.3-7.26,20-8,11.53-.66,20.43,2.42,25.75,8.89s7.16,16.62,5.17,29.22a12.08,12.08,0,0,0-1.79.06l-.18-2.6a3.08,3.08,0,0,0-.85-1.92,57.36,57.36,0,0,0-14.84-10.25c-12.08-5.85-24.67-6.66-36.41-2.34a3,3,0,0,0-1.75,3.8,2.8,2.8,0,0,0,3.61,1.84c10.42-3.83,21.19-3.14,32,2.05a54.77,54.77,0,0,1,12.66,8.46l.35,5a3,3,0,0,0,1.51,2.43,2.69,2.69,0,0,0,2.74-.07,6.34,6.34,0,0,1,3-.42,3.07,3.07,0,0,1,2.22,3.09v2.29a3.21,3.21,0,0,1-2.1,3.19,2.56,2.56,0,0,1-.82.07,5.72,5.72,0,0,0-5.88,4.86c-2.18,12.51-12.52,21.58-24.59,21.58S147.62,365.45,145.44,352.94ZM170,407.46c-10.87,0-20.4-7-24.24-17.54a12.67,12.67,0,0,0,7.37-11.61v-3.14a29.36,29.36,0,0,0,33.74,0v3.14a12.67,12.67,0,0,0,7.37,11.61C190.45,400.35,180.77,407.46,170,407.46Z"/><path class="cls-4" d="M215.14,107.33a4.22,4.22,0,0,1-2.69-3.91V97.56A24.93,24.93,0,0,0,218.34,86a7.5,7.5,0,0,0,1.48-.19,7.65,7.65,0,0,0,5.68-7.48V76.61a7.73,7.73,0,0,0-2-5.22c2-11.36.25-20.66-5.16-26.91s-13.79-9-24.57-8.46a32,32,0,0,0-18.31,6.71c-2.84.42-10.92,2.62-10.92,13.88A58.72,58.72,0,0,0,166.06,70a7.66,7.66,0,0,0-3.75,6.65v1.69A7.36,7.36,0,0,0,169.48,86a24.82,24.82,0,0,0,5.88,11.56v5.86a4.22,4.22,0,0,1-2.69,3.91l-16.87,6.49a17.5,17.5,0,0,0-5,3c.53.66,1.07,1.3,1.62,1.93.77.87,1.57,1.71,2.38,2.53A11.38,11.38,0,0,1,158,119.4l12.23-4.7a26.12,26.12,0,0,0,8.32,10.67,25.74,25.74,0,0,0,31-.11,25.81,25.81,0,0,0,8.18-10.56l12.22,4.7a11.19,11.19,0,0,1,3.14,1.86c.72-.75,1.46-1.59,2.32-2.6.54-.64,1.07-1.3,1.57-2a17,17,0,0,0-4.88-2.88Zm-39.91-23h0A5.23,5.23,0,0,0,170.15,80h-.36a1.54,1.54,0,0,1-.42,0,1.7,1.7,0,0,1-1.08-1.66V76.64A1.61,1.61,0,0,1,169.42,75a1.41,1.41,0,0,1,1.4.53,3.93,3.93,0,0,0,2,1.39,4,4,0,0,0,3.39-.55,18.09,18.09,0,0,0,6-8.12,3,3,0,0,0-5.69-1.84,12.23,12.23,0,0,1-2.49,4,7.35,7.35,0,0,0-1.91-1,53.09,53.09,0,0,1-1.59-12.81c0-3.37,1-5.72,3-7a7.13,7.13,0,0,1,3.17-1,3,3,0,0,0,2.07-.83A25.7,25.7,0,0,1,194.07,42c8.85-.48,15.68,1.74,19.72,6.4s5.37,11.74,4,20.65h-.08l-.09-1.2a3,3,0,0,0-.9-1.93,46.27,46.27,0,0,0-11.92-7.82C195.09,53.63,185,53,175.49,56.31a3,3,0,0,0,2,5.65c8-2.81,16.36-2.3,24.72,1.51a42.91,42.91,0,0,1,9.58,6L212,72.9a3,3,0,0,0,4.48,2.37,5,5,0,0,1,1.88-.24,1.59,1.59,0,0,1,1.15,1.58v1.72A1.68,1.68,0,0,1,218.44,80a1.51,1.51,0,0,1-.42,0,5.24,5.24,0,0,0-5.44,4.26,19,19,0,0,1-37.35,0Zm18.68,40.23a19.58,19.58,0,0,1-18.18-12,10.29,10.29,0,0,0,5.61-9.08v-1a24.92,24.92,0,0,0,25.13,0v1a10.29,10.29,0,0,0,5.61,9.08A19.89,19.89,0,0,1,193.91,124.51Z"/><path class="cls-4" d="M417.18,250.84l-21.46-8.25a5.46,5.46,0,0,1-3.47-5.05v-7.49a31.53,31.53,0,0,0,7.5-14.74,9.82,9.82,0,0,0,1.93-.25,9.66,9.66,0,0,0,7.17-9.44v-2.18a9.77,9.77,0,0,0-2.59-6.61c2.59-14.45.33-26.27-6.54-34.21-6.72-7.76-17.51-11.48-31.18-10.73a40.56,40.56,0,0,0-23.27,8.53c-3.57.52-13.84,3.29-13.84,17.58a74.82,74.82,0,0,0,2,17.06,9.65,9.65,0,0,0-4.78,8.41v2.15a9.33,9.33,0,0,0,9.1,9.69,31.58,31.58,0,0,0,7.5,14.74v7.49a5.46,5.46,0,0,1-3.47,5.05l-21.46,8.25a22.3,22.3,0,0,0-4.8,2.57c.94,1.25,1.92,2.48,2.95,3.64.63.71,1.27,1.4,1.92,2.09a14.25,14.25,0,0,1,2.6-1.35l15.63-6a33.15,33.15,0,0,0,10.6,13.61,32.63,32.63,0,0,0,39.27-.14,32.78,32.78,0,0,0,10.42-13.47l15.62,6a14.87,14.87,0,0,1,2.51,1.29c.58-.64,1.19-1.33,1.85-2.11q1.53-1.83,2.91-3.71A21.9,21.9,0,0,0,417.18,250.84ZM344.91,213.2a6.58,6.58,0,0,0-6.83-5.34,2.12,2.12,0,0,1-.56-.05,2.21,2.21,0,0,1-1.44-2.19v-2.15a2.11,2.11,0,0,1,1.5-2.12,1.87,1.87,0,0,1,1.86.7,4.89,4.89,0,0,0,6.73,1.06,22.9,22.9,0,0,0,7.56-10.29,3.72,3.72,0,1,0-7.08-2.29,15.48,15.48,0,0,1-3.24,5.11,9.41,9.41,0,0,0-2.5-1.29,67.87,67.87,0,0,1-2-16.35c0-4.32,1.3-7.33,3.86-9a9,9,0,0,1,4.08-1.31,3.68,3.68,0,0,0,2.57-1c.07-.07,7.2-6.7,19.55-7.37,11.3-.61,20,2.22,25.15,8.17s6.86,15,5.11,26.4H399l-.12-1.61a3.73,3.73,0,0,0-1.12-2.39A58.49,58.49,0,0,0,382.57,180c-12.34-5.67-25.21-6.46-37.22-2.27a3.72,3.72,0,1,0,2.45,7c10.25-3.57,20.84-2.92,31.49,1.93a54.22,54.22,0,0,1,12.23,7.69l.33,4.37a3.72,3.72,0,0,0,5.57,2.95,6.22,6.22,0,0,1,2.45-.31,2.11,2.11,0,0,1,1.53,2.09v2.18a2.21,2.21,0,0,1-1.44,2.19,2.09,2.09,0,0,1-.55.05,6.57,6.57,0,0,0-6.84,5.34,24.23,24.23,0,0,1-47.66,0Zm23.83,51.24a25,25,0,0,1-23.22-15.39,13,13,0,0,0,7.15-11.51v-1.42a31.67,31.67,0,0,0,32.14,0v1.42A13,13,0,0,0,392,249.05,25.39,25.39,0,0,1,368.74,264.44Z"/></svg>