<svg id="Capa_1" data-name="Capa 1" xmlns="http://www.w3.org/2000/svg" viewBox="0 0 496 496"><defs><style>.cls-1{fill:#fff;}.cls-2{fill:#e7503d;}.cls-3{fill:#61afbb;}.cls-4{fill:#b5b5b5;}</style></defs><title>TechnicalDev</title><path class="cls-1" d="M33.43,334.74V112H462.07V373.39A16,16,0,0,1,452.69,388l-194.62,1.46H49.45a16,16,0,0,1-16-16V334.74Zm416.67,68c13-3,25.31-15.45,25.31-29.36l.51-322.8a29.39,29.39,0,0,0-29.36-29.36H49.45A29.4,29.4,0,0,0,20.08,50.59v322.8a29.4,29.4,0,0,0,29.37,29.36H179.26v23.93H159.11a24.4,24.4,0,0,0-24.37,24.37v14.41a11.13,11.13,0,0,0,11.12,11.12H349.63a11.13,11.13,0,0,0,11.12-11.12V451.05a24.39,24.39,0,0,0-24.37-24.37H316.24V402.75m-13.34,0v23.93H192.6V402.75M336.39,440a11,11,0,0,1,11,11v12.19H148.09V451.05a11,11,0,0,1,11-11ZM462.07,98.64H33.92v-48a16,16,0,0,1,16-16H446.05a16,16,0,0,1,16,16Z"/><path class="cls-2" d="M73.41,182.06a6.23,6.23,0,0,0,8.81-8.81L67.09,158.12,82.22,143a6.23,6.23,0,0,0-8.81-8.81L53.88,153.72a6.22,6.22,0,0,0,0,8.81Z"/><path class="cls-2" d="M138,158.12l-15.13,15.13a6.23,6.23,0,1,0,8.81,8.81l19.54-19.54a6.22,6.22,0,0,0,0-8.8l-19.54-19.54a6.23,6.23,0,1,0-8.8,8.81Z"/><path class="cls-2" d="M92.81,183.46a6.31,6.31,0,0,0,2.28.43,6.22,6.22,0,0,0,5.8-4l15.35-39.07a6.23,6.23,0,0,0-11.6-4.55L89.29,175.38A6.24,6.24,0,0,0,92.81,183.46Z"/><path class="cls-3" d="M64.61,221.38h42a6.24,6.24,0,0,0,0-12.47h-42a6.24,6.24,0,0,0,0,12.47Z"/><path class="cls-3" d="M203.26,208.91h-73.8a6.24,6.24,0,0,0,0,12.47h73.8a6.24,6.24,0,0,0,0-12.47Z"/><path class="cls-3" d="M64.61,247.66H82.49a6.24,6.24,0,0,0,0-12.47H64.61a6.24,6.24,0,0,0,0,12.47Z"/><path class="cls-3" d="M180.47,235.19a6.24,6.24,0,0,0,0,12.47h10.88a6.24,6.24,0,1,0,0-12.47Z"/><path class="cls-3" d="M164.07,241.42a6.23,6.23,0,0,0-6.23-6.23H104.35a6.24,6.24,0,0,0,0,12.47h53.49A6.23,6.23,0,0,0,164.07,241.42Z"/><path class="cls-3" d="M204.88,241.42a6.23,6.23,0,0,0,6.23,6.24h20.4a6.24,6.24,0,0,0,0-12.47h-20.4A6.23,6.23,0,0,0,204.88,241.42Z"/><path class="cls-3" d="M171,164.05h21.51a6.23,6.23,0,1,0,0-12.46H171a6.23,6.23,0,1,0,0,12.46Z"/><path class="cls-3" d="M216.55,164.05H347.81a6.23,6.23,0,1,0,0-12.46H216.55a6.23,6.23,0,1,0,0,12.46Z"/><path class="cls-3" d="M171,191.47h44.77a6.24,6.24,0,0,0,0-12.47H171a6.24,6.24,0,0,0,0,12.47Z"/><path class="cls-3" d="M157.91,261.25h-42a6.23,6.23,0,0,0,0,12.46h42a6.23,6.23,0,0,0,0-12.46Z"/><path class="cls-3" d="M96.86,261.25H64.61a6.23,6.23,0,0,0,0,12.46H96.86a6.23,6.23,0,1,0,0-12.46Z"/><path class="cls-3" d="M234,261.25H179.17a6.23,6.23,0,0,0,0,12.46H234a6.23,6.23,0,0,0,0-12.46Z"/><path class="cls-2" d="M319.35,201.56h-30a6.23,6.23,0,0,0,0,12.46h30a6.23,6.23,0,1,0,0-12.46Z"/><path class="cls-2" d="M371.38,214H413.7a6.23,6.23,0,1,0,0-12.46H371.38a6.23,6.23,0,0,0,0,12.46Z"/><path class="cls-2" d="M350.21,201.56h-9.7a6.23,6.23,0,0,0,0,12.46h9.7a6.23,6.23,0,1,0,0-12.46Z"/><path class="cls-2" d="M289.37,281.92h30a6.23,6.23,0,0,0,0-12.46h-30a6.23,6.23,0,0,0,0,12.46Z"/><path class="cls-2" d="M371.38,281.92H413.7a6.23,6.23,0,1,0,0-12.46H371.38a6.23,6.23,0,0,0,0,12.46Z"/><path class="cls-2" d="M340.51,281.92h9.7a6.23,6.23,0,1,0,0-12.46h-9.7a6.23,6.23,0,0,0,0,12.46Z"/><path class="cls-2" d="M319.35,337.36h-30a6.23,6.23,0,0,0,0,12.46h30a6.23,6.23,0,1,0,0-12.46Z"/><path class="cls-2" d="M413.7,337.36H371.38a6.23,6.23,0,1,0,0,12.46H413.7a6.23,6.23,0,1,0,0-12.46Z"/><path class="cls-2" d="M350.21,337.36h-9.7a6.23,6.23,0,1,0,0,12.46h9.7a6.23,6.23,0,1,0,0-12.46Z"/><path class="cls-4" d="M274.15,290.62V260.76H431v29.86Zm17.19-42.33V235.18H413.8v13.11ZM413.8,303.08v13.11H291.34V303.08ZM431,358.52H274.15V328.66H431Zm12.47-15.83V328.45a12.27,12.27,0,0,0-12.26-12.26h-4.94v-12.6s17,1.67,17-10.59.21-32.45.21-32.45a12.27,12.27,0,0,0-12.26-12.26h-4.94V235.18h4.94a12.27,12.27,0,0,0,12.26-12.25V192.65a12.27,12.27,0,0,0-12.26-12.26H396a6.24,6.24,0,0,0,0,12.47h35v29.86H274.15V192.86h83.09a6.24,6.24,0,0,0,0-12.47h-83.3a12.27,12.27,0,0,0-12.26,12.26v30.28a12.27,12.27,0,0,0,12.26,12.25h4.94v13.11h-4.94a12.27,12.27,0,0,0-12.26,12.26s.21,22.36.21,32.45,4.72,12.46,9.34,12.46h7.65v10.73h-4.94a12.27,12.27,0,0,0-12.26,12.26v30.28A12.27,12.27,0,0,0,273.94,371H431.2a12.26,12.26,0,0,0,12.25-12.25v-16Z"/><path class="cls-4" d="M69.28,46.84A19.58,19.58,0,1,0,88.86,66.41,19.59,19.59,0,0,0,69.28,46.84Zm0,25.81a6.24,6.24,0,1,1,6.24-6.24A6.25,6.25,0,0,1,69.28,72.65Z"/><path class="cls-4" d="M119.13,46.84a19.58,19.58,0,1,0,19.58,19.57A19.6,19.6,0,0,0,119.13,46.84Zm0,25.81a6.24,6.24,0,1,1,6.23-6.24A6.25,6.25,0,0,1,119.13,72.65Z"/><path class="cls-4" d="M169,46.84a19.58,19.58,0,1,0,19.58,19.57A19.59,19.59,0,0,0,169,46.84Zm0,25.81a6.24,6.24,0,1,1,6.24-6.24A6.25,6.25,0,0,1,169,72.65Z"/></svg>