<svg xmlns="http://www.w3.org/2000/svg" width="105" height="105" viewBox="0 0 105 105"><title>Refined_Manageent</title><path d="M72.92,81.45a10.82,10.82,0,1,0,7.64-3.16A10.8,10.8,0,0,0,72.92,81.45ZM75.46,84a7.2,7.2,0,1,1,0,10.19A7.16,7.16,0,0,1,75.46,84Z" fill="#cfd3d3"/><path d="M102.59,53.14a10.8,10.8,0,0,0-9.4-5.47,10.68,10.68,0,0,0-5.32,1.41,10.8,10.8,0,1,0,14.72,4.06Zm-2.45,7.25a7.21,7.21,0,1,1-.68-5.47A7.18,7.18,0,0,1,100.14,60.39Z" fill="#cfd3d3"/><path d="M22.6,80.39a10.8,10.8,0,1,0-10.8,10.8A10.79,10.79,0,0,0,22.6,80.39Zm-3.6,0a7.2,7.2,0,1,1-7.2-7.2A7.21,7.21,0,0,1,19,80.39Z" fill="#cfd3d3"/><path d="M59,20.17a10.79,10.79,0,1,0-9.31,5.32A10.79,10.79,0,0,0,59,20.17Zm-3.1-1.83a7.2,7.2,0,1,1-2.54-9.86,7.21,7.21,0,0,1,2.54,9.86Z" fill="#cfd3d3"/><path d="M47.84,31.14A27.3,27.3,0,0,0,23.63,67.05l2.56-.86c0-.09-.05-.19-.08-.28s-.15-.49-.22-.74c-.14-.48-.26-1-.37-1.45-.06-.27-.11-.53-.16-.8-.1-.51-.17-1-.24-1.53L25,60.65c-.06-.73-.11-1.47-.11-2.21v-.08c0-.16,0-.31,0-.47,0-.66,0-1.32.1-2,0-.41.12-.81.18-1.22s.1-.77.18-1.15.23-1,.35-1.45c.08-.28.13-.56.22-.83.16-.54.36-1.07.55-1.59.08-.2.14-.4.22-.59.23-.57.5-1.13.77-1.68.07-.13.12-.26.19-.39.3-.59.64-1.15,1-1.71l.14-.24c.38-.59.79-1.16,1.22-1.71l.08-.11c.46-.58.93-1.14,1.44-1.67l0,0a24.49,24.49,0,0,1,17.93-7.79c.64,0,1.27,0,1.91.09l0-6.69a12.77,12.77,0,0,1-3.6,0Z" fill="#cfd3d3"/><path d="M27.44,69.17l-5.78,3.38a12.88,12.88,0,0,1,1.82,3.11l3.42-2A27.31,27.31,0,0,0,63.18,82l-1.35-2.34-.36.19-.52.28c-.52.28-1,.53-1.58.76l-.37.17q-.93.39-1.89.69l-.65.2c-.54.16-1.08.3-1.63.42l-.46.11c-.68.13-1.36.23-2,.31l-.61.06c-.71.06-1.42.11-2.14.11h0a24.36,24.36,0,0,1-2.85-.18c-.2,0-.39-.06-.58-.09-.78-.11-1.54-.25-2.29-.43l-.49-.12a24.53,24.53,0,0,1-2.43-.77l-.21-.08a24.46,24.46,0,0,1-7.36-4.46L33,76.59a21.47,21.47,0,0,1-1.72-1.72L31,74.49a26.69,26.69,0,0,1-1.67-2.14l-.05-.06h0A26,26,0,0,1,27.44,69.17Z" fill="#cfd3d3"/><path d="M80.74,56.64h-4A27.44,27.44,0,0,0,55.43,31.7l-.58,2.64c.61.13,1.22.3,1.81.48.22.06.44.15.66.22.51.17,1,.35,1.51.55s.7.31,1,.48.58.26.86.41.82.44,1.22.67l.5.31a24.58,24.58,0,0,1,11.33,17l.06.41c.08.54.14,1.07.18,1.61a.88.88,0,0,1,0,.16h0c0,.58.09,1.16.09,1.74s-.05,1.25-.09,1.86l6.7,0A12.77,12.77,0,0,1,80.74,56.64Z" fill="#cfd3d3"/><path d="M65.67,76.89l4.77,4.72a11.6,11.6,0,0,1,1.21-1.43A10.81,10.81,0,0,1,73,79.05l-2.83-2.8a27.07,27.07,0,0,0,6.12-12.38l-2.64-.54,0,.06a26.21,26.21,0,0,1-.72,2.67c-.09.27-.2.53-.3.8-.23.64-.49,1.26-.77,1.86-.13.27-.25.54-.39.81-.35.68-.73,1.34-1.13,2-.1.14-.17.29-.27.43a24,24,0,0,1-1.72,2.29,1,1,0,0,0-.08.11h0A24.46,24.46,0,0,1,65.67,76.89Z" fill="#cfd3d3"/><path d="M42.59,70a.73.73,0,0,0-1,.27l-.78,1.36a.72.72,0,0,0,.27,1,.68.68,0,0,0,.36.1.72.72,0,0,0,.64-.37L42.86,71A.73.73,0,0,0,42.59,70Zm-.52-26.08a.73.73,0,0,0-1-.27.72.72,0,0,0-.27,1L41.58,46a.75.75,0,0,0,.64.36.71.71,0,0,0,.37-.1.73.73,0,0,0,.27-1Zm-4.76,6.37L36,49.52a.74.74,0,0,0-.74,1.28l1.36.79a.81.81,0,0,0,.37.09.75.75,0,0,0,.64-.36A.74.74,0,0,0,37.31,50.31Zm-.74,14.43-1.36.78a.74.74,0,0,0,.37,1.38.74.74,0,0,0,.37-.1L37.31,66a.73.73,0,1,0-.74-1.27Zm12.86,7.11a.74.74,0,0,0-.73.74v1.57a.74.74,0,1,0,1.47,0V72.59A.74.74,0,0,0,49.43,71.85ZM35.74,58.16a.73.73,0,0,0-.73-.73H33.44a.74.74,0,1,0,0,1.47H35A.74.74,0,0,0,35.74,58.16Zm13-16v1.57a.74.74,0,1,0,1.47,0V42.16a.74.74,0,0,0-1.47,0ZM50.17,48a.74.74,0,0,0-1.47,0v7.5a2.81,2.81,0,1,0,3.45,3.45h6.57a.74.74,0,0,0,0-1.47H52.15a2.83,2.83,0,0,0-2-2Zm.61,10.21a1.35,1.35,0,1,1-1.35-1.35A1.34,1.34,0,0,1,50.78,58.16Zm5.5-11.86a.71.71,0,0,0,.37.1.75.75,0,0,0,.64-.36l.78-1.37a.73.73,0,0,0-.27-1,.73.73,0,0,0-1,.27L56,45.3A.73.73,0,0,0,56.28,46.3ZM27.87,58.16A21.56,21.56,0,1,0,49.43,36.6,21.59,21.59,0,0,0,27.87,58.16Zm40.18,0A18.62,18.62,0,1,1,49.43,39.55,18.64,18.64,0,0,1,68.05,58.16ZM57.28,70.29a.73.73,0,0,0-1-.27A.73.73,0,0,0,56,71l.79,1.36a.71.71,0,0,0,.63.37.69.69,0,0,0,.37-.1.73.73,0,0,0,.27-1Zm5.85-12.13a.73.73,0,0,0,.73.74h1.57a.74.74,0,0,0,.74-.74.73.73,0,0,0-.74-.73H63.86A.73.73,0,0,0,63.13,58.16Zm-1.2-6.48a.84.84,0,0,0,.37-.09l1.36-.79a.74.74,0,1,0-.74-1.28l-1.36.79a.74.74,0,0,0-.27,1A.75.75,0,0,0,61.93,51.68ZM61.56,66l1.36.79a.71.71,0,0,0,.37.1.76.76,0,0,0,.64-.37.75.75,0,0,0-.27-1l-1.36-.78a.75.75,0,0,0-1,.27A.73.73,0,0,0,61.56,66Z" fill="#fff"/></svg>