<svg xmlns="http://www.w3.org/2000/svg" xmlns:xlink="http://www.w3.org/1999/xlink" width="105" height="105" viewBox="0 0 105 105"><defs><clipPath id="a"><circle cx="52.14" cy="52.03" r="27.71" fill="none"/></clipPath></defs><title>Services_DedicatedSolutions</title><path d="M96,64.83l.09-.31c.44-1.62,1-3.35,1.82-3.49s1.92-.3,3.12-.43A2,2,0,0,0,102.7,59l.21-1.14a26.78,26.78,0,0,0,.6-6,25.87,25.87,0,0,0-.63-5.87c-.07-.37-.15-.78-.23-1.23a2,2,0,0,0-1.73-1.55c-1.19-.13-2.23-.26-3.09-.4S96.45,41,96,39.4l-.09-.33a46.33,46.33,0,0,0-3.75-8.93L92,29.91c-.85-1.51-1.7-3.18-1.17-3.88s1.3-1.68,1.88-2.41.56-1.27.07-2.36-8.61-9.17-10-10-1.63-.47-2.34.1c-.91.73-1.75,1.35-2.49,1.86s-2.29-.36-3.74-1.18L74,11.92a44.8,44.8,0,0,0-9-3.75l-.33-.09c-1.61-.45-3.33-1-3.47-1.83s-.28-1.85-.41-3a2,2,0,0,0-1.61-1.73A17.31,17.31,0,0,0,54.6.82h0l-5.18,0a16.57,16.57,0,0,0-4.53.73c-1.1.35-1.47.75-1.59,1.73-.12,1.18-.26,2.19-.39,3S41,7.69,39.41,8.15l-.32.09a45.4,45.4,0,0,0-9,3.8l-.3.17c-1.44.83-3,1.66-3.73,1.2s-1.58-1.13-2.49-1.85c-.66-.52-1-.59-2.38-.06s-9.13,8.55-9.91,10-.5,1.6.05,2.29l0,.05c.59.73,1.32,1.65,1.9,2.4s-.11,2-1.15,3.89l-.13.23a45.39,45.39,0,0,0-3.69,9l-.1.33c-.44,1.61-1,3.34-1.83,3.48s-1.9.28-3.08.41a2,2,0,0,0-1.72,1.57l-.22,1.18a25.84,25.84,0,0,0-.59,5.92,26.24,26.24,0,0,0,.63,5.93l.22,1.18a2,2,0,0,0,1.73,1.56c1.2.12,2.24.26,3.11.41s1.39,1.86,1.84,3.46l.09.33A46.09,46.09,0,0,0,12.12,74l.14.24c.84,1.5,1.69,3.17,1.16,3.87s-1.3,1.67-1.88,2.4a2,2,0,0,0-.09,2.31c3.52,5,5,6.55,10.07,10a1.94,1.94,0,0,0,2.31-.1c.93-.74,1.77-1.37,2.5-1.87a.88.88,0,0,1,.52-.14,8.49,8.49,0,0,1,3.23,1.33l.29.16a44.76,44.76,0,0,0,9,3.74l.33.1c1.61.44,3.34,1,3.48,1.83s.26,1.82.39,3a2,2,0,0,0,1.59,1.73,18.18,18.18,0,0,0,4.55.7h5.21a19.6,19.6,0,0,0,4.55-.73A2.21,2.21,0,0,0,61,100.84c.12-1.15.24-2.15.37-3s1.86-1.4,3.47-1.86l.33-.09a46.5,46.5,0,0,0,9-3.8l.44-.26-3.23-3.23a40.84,40.84,0,0,1-13,4.3,2,2,0,0,0-1.61,1.41,29.3,29.3,0,0,0-.58,2.91A1.9,1.9,0,0,1,55,98.9a12.56,12.56,0,0,1-5.39,0,1.9,1.9,0,0,1-1.17-1.65,29.1,29.1,0,0,0-.59-2.91A2,2,0,0,0,46.2,93a41.23,41.23,0,0,1-18.62-7.67,1.91,1.91,0,0,0-2.13-.14q-1.11.64-2.4,1.56a2.45,2.45,0,0,1-3.1-.16c-.73-.69-1.44-1.39-2.1-2.1a2.41,2.41,0,0,1-.19-3.09c.62-.84,1.12-1.59,1.55-2.3a2,2,0,0,0-.12-2.2,41.27,41.27,0,0,1-7.81-18.67,1.93,1.93,0,0,0-1.41-1.61,27.83,27.83,0,0,0-3-.59,2.49,2.49,0,0,1-2.07-2.33,25.31,25.31,0,0,1,0-2.89,2.5,2.5,0,0,1,2.11-2.35c1.08-.17,2-.36,2.86-.58a2,2,0,0,0,1.45-1.64A41.29,41.29,0,0,1,19,27.48a2,2,0,0,0,.1-2.2A25.36,25.36,0,0,0,17.49,23a2.43,2.43,0,0,1,.17-3.09c.67-.73,1.37-1.43,2.07-2.09a2.45,2.45,0,0,1,3.1-.18c.85.6,1.66,1.12,2.4,1.54A1.91,1.91,0,0,0,27.36,19,41.3,41.3,0,0,1,46,11.22a1.9,1.9,0,0,0,1.58-1.31,30.19,30.19,0,0,0,.61-3,1.88,1.88,0,0,1,1.15-1.64,11.59,11.59,0,0,1,5.4,0,1.93,1.93,0,0,1,1.15,1.62,29.22,29.22,0,0,0,.63,3,1.9,1.9,0,0,0,1.59,1.31,41.15,41.15,0,0,1,18.65,7.69,1.91,1.91,0,0,0,2.13.14c.73-.42,1.54-.95,2.39-1.56a2.47,2.47,0,0,1,3.1.16c.71.67,1.41,1.36,2.08,2.08a2.45,2.45,0,0,1,.19,3.09c-.61.83-1.12,1.58-1.55,2.3a2,2,0,0,0,.12,2.2A41.32,41.32,0,0,1,93,46a2,2,0,0,0,1.46,1.63,29.07,29.07,0,0,0,2.86.56,2.51,2.51,0,0,1,2.13,2.35,25.16,25.16,0,0,1,0,2.88,2.48,2.48,0,0,1-2.06,2.34,29,29,0,0,0-3,.61A1.94,1.94,0,0,0,93,58a41,41,0,0,1-4.53,13.7l3.16,3.16a9.93,9.93,0,0,0,.61-1A51.72,51.72,0,0,0,96,64.83Z" fill="#cfd3d3"/><path d="M26.91,26.8A35.66,35.66,0,0,0,70.48,82.62l1-.62.86.86,18,18.1A7.13,7.13,0,1,0,100.5,90.9l-17.89-18L81.74,72l.66-1a35.7,35.7,0,0,0-4.58-43.85l-.07-.07L77.69,27a1.68,1.68,0,0,0-.18-.21,35.8,35.8,0,0,0-50.6,0Zm46.91,3,.07.09.14.15A31,31,0,0,1,30.19,74a30.6,30.6,0,0,1-9-21.89,31.07,31.07,0,0,1,52.6-22.34Z" fill="#fff"/><g clip-path="url(#a)"><path d="M67.24,68.93,59,65.12a1.18,1.18,0,0,1-.69-1.07V61.3l.07,0a11.33,11.33,0,0,0,4.79-7.16l0-.13h.13a3,3,0,0,0,.76-.08,3.18,3.18,0,0,0,2.37-3.12V50a3.17,3.17,0,0,0-1.32-2.59L65,47.33l0-.11a12.12,12.12,0,0,0,.36-2.93,12.59,12.59,0,0,0-6-10.67l-.07,0v-.08a7.14,7.14,0,0,0-14.27,0v.08l-.07,0a12.45,12.45,0,0,0-5.68,13.6l0,.1-.09.06A3.2,3.2,0,0,0,37.88,50v.78a3.17,3.17,0,0,0,2.36,3.12A3.48,3.48,0,0,0,41,54h.12l0,.12A11.25,11.25,0,0,0,46,61.26l.07,0v2.75a1.17,1.17,0,0,1-.69,1.07L37,68.93a7.72,7.72,0,0,0-4.46,7.44l.28,4.55L35,82.66l-.39-6.42a5.59,5.59,0,0,1,1-3.58,11.41,11.41,0,0,1,1.51-1.45,4.58,4.58,0,0,1,.72-.4l5-2.28,0,.16a9.89,9.89,0,0,0,18.45,0l.06-.16,5,2.28a2,2,0,0,1,.33.18l.39.22a10.32,10.32,0,0,1,1.48,1.42,5.69,5.69,0,0,1,1.06,3.61l-.4,6.44,2.17-1.58.29-4.73A7.72,7.72,0,0,0,67.24,68.93Zm-20-36.74a5.06,5.06,0,0,1,9.72,0l.09.29-.29-.1a13.69,13.69,0,0,0-9.32,0l-.29.1ZM43.16,53.58A2.05,2.05,0,0,0,41,51.9a1.08,1.08,0,0,1-.3,0h0A1.12,1.12,0,0,1,40,50.77V50a1.09,1.09,0,0,1,.81-1.09,1,1,0,0,1,1,.38,1.47,1.47,0,0,0,.75.52,1.51,1.51,0,0,0,1.27-.2,7.91,7.91,0,0,0,2.11-2.24,1,1,0,1,0-1.75-1.11,5.44,5.44,0,0,1-1,1.24l-.1.09-.1-.08a3.14,3.14,0,0,0-1.48-.65h-.11l0-.1a10.21,10.21,0,0,1-.3-2.45,11.18,11.18,0,0,1,22.34,0,10.06,10.06,0,0,1-.3,2.44l0,.1h-.11q-.37,0-.72.12l-.08,0-.83-.69a2.08,2.08,0,0,0-1.42-.46,24,24,0,0,1-6.18-.47,13.46,13.46,0,0,1-7.84-4.26,1,1,0,0,0-.7-.37,1,1,0,0,0-.76.24,1,1,0,0,0-.37.7,1.07,1.07,0,0,0,.24.76,15.55,15.55,0,0,0,9,5,26.4,26.4,0,0,0,6.66.51h.06L61.23,49a1,1,0,0,0,1.17.1,2.44,2.44,0,0,1,1.11-.15A1.07,1.07,0,0,1,64.33,50v.79a1.12,1.12,0,0,1-.77,1.11,1.1,1.1,0,0,1-.31,0,2.08,2.08,0,0,0-2.14,1.68,9.12,9.12,0,0,1-18,0ZM59.48,67.8a7.81,7.81,0,0,1-14.68,0l0-.13L46.19,67a3.23,3.23,0,0,0,1.9-3V62.37l.21.08a11.14,11.14,0,0,0,7.68,0l.21-.08v1.68a3.24,3.24,0,0,0,1.89,3l1.45.67Z" fill="#fff"/></g></svg>